<svg xmlns="http://www.w3.org/2000/svg" xmlns:xlink="http://www.w3.org/1999/xlink" width="407.97" height="239.45" viewBox="0 0 407.97 239.45"><defs><style>.cls-1{fill:#231815;}.cls-2{fill:none;stroke:#221613;stroke-linecap:round;stroke-linejoin:round;stroke-width:13.64px;}.cls-3{fill:url(#linear-gradient);}</style><linearGradient id="linear-gradient" x1="211.19" y1="3.39" x2="211.19" y2="135.61" gradientTransform="translate(-4)" gradientUnits="userSpaceOnUse"><stop offset="0.01" stop-color="#fff"/><stop offset="0.45" stop-color="#f4e727"/><stop offset="0.82" stop-color="#e17024"/><stop offset="1" stop-color="#d93923"/></linearGradient></defs><title>campaign_sm</title><g id="レイヤー_2" data-name="レイヤー 2"><g id="デザイン"><path class="cls-1" d="M55.51,141.84a26.69,26.69,0,0,0,.78,5,33.12,33.12,0,0,0,8-3.41A54,54,0,0,0,66.84,149c-1.47.93-3.18,2-8.57,3.78.6,1.43.69,1.57.88,2a38.93,38.93,0,0,0,9.67-5c.51,1,3.09,5.11,3.59,5.94a41.32,41.32,0,0,1-10.08,5.12,44.61,44.61,0,0,0,7,8.8L65,174.18a25,25,0,0,0-13.13-3.87c-1.94,0-6,.64-6,3.31,0,2.21,2.49,3.78,8,3.78,2.12,0,7.69-.05,12.07-1.89a21,21,0,0,0-.51,4.93,10.46,10.46,0,0,0,.14,2A39.13,39.13,0,0,1,54,183.9c-11.84,0-15.67-5.67-15.67-10.09,0-4.93,4.52-8.75,12.26-8.75a49.34,49.34,0,0,1,6.4.5,24.14,24.14,0,0,1-1.61-2.76A82.12,82.12,0,0,1,40,164.41a27.65,27.65,0,0,1-2.95-.14l-.78-6.82c2.81.14,4.61.19,5.62.19a55.86,55.86,0,0,0,10.6-1.06c-.23-.51-.37-.92-.88-2a89.25,89.25,0,0,1-11.51,1.11l-1.48-6.45a56,56,0,0,0,10.55-.74c-1.06-2.76-1.38-3.87-1.89-5.39Z"/><path class="cls-1" d="M77.34,149.07a33.42,33.42,0,0,0,5.11.37c1.34,0,2.72-.09,4.7-.23a70.3,70.3,0,0,0,1.7-7.83l7.24,2.25c.64.19.87.37.87.74,0,.55-.73.55-1,.55-.14.33-.74,2.45-.93,3a38.63,38.63,0,0,0,5-1.52,47.62,47.62,0,0,0,.14,6.87,61,61,0,0,1-7.37,1.61c-.65,1.89-2.21,6.13-4.7,11.79a61.45,61.45,0,0,1-5.39,10.14,36.54,36.54,0,0,0-6.91-2.77,82.14,82.14,0,0,0,9.3-18.19c-1.06.09-5.48.23-6.91.23Zm29.8,12.58a6.85,6.85,0,0,0-1.66,4.51,32.32,32.32,0,0,0,.47,4.52,48.8,48.8,0,0,1,9.76,5.62,46.72,46.72,0,0,0-4.24,5.52,41.9,41.9,0,0,0-5.29-3.87c-.88,4.33-3.92,5.62-9.22,5.62-7.32,0-11-3.27-11-7.6,0-.87.18-7.28,9.49-7.28,1.29,0,2.21.1,3,.14,0-.32-.23-3.64-.23-4a9,9,0,0,1,3.22-6.41ZM95.72,174.18c-1.29,0-3,.64-3,1.89,0,1.1,1.34,1.7,3.27,1.7,3.13,0,3.32-1.52,3.46-2.67A8.88,8.88,0,0,0,95.72,174.18Zm8.94-24.56c7.32,2.4,10,4.33,12.11,6a59.9,59.9,0,0,0-4.19,5.94A33.12,33.12,0,0,0,101,155.61Z"/><path class="cls-1" d="M140.86,163.35v-.92c-.42.6-.69,1-1.2,1.66a22.36,22.36,0,0,0-4.93-3.18H132a33.71,33.71,0,0,0,5.76,9.12c-1.15.83-2.9,2.49-4.33,3.82a19.75,19.75,0,0,1-2-3.36V183.8h-5.8v-9.62a22.19,22.19,0,0,1-2,3.22c-.7-.83-1.34-1.75-4.89-4.33a31,31,0,0,0,6-12.16h-4.38v-6h5.21V153c-2.58.73-2.86.83-4.1,1.24a54,54,0,0,0-2.49-7.51l4.88-1.8a31.67,31.67,0,0,1,1.71,4v-7.05l6.08.56c.5,0,.87.09.87.46s-.5.6-1.15.87v7.14c.19-.46,1.24-3.59,1.8-5.89l6,1.79c.23.05.55.19.55.51,0,.51-.55.6-1.43.69a42.45,42.45,0,0,1-2.35,6.45,20.5,20.5,0,0,0-4.56-1.8v2.26h5.07v2a40.25,40.25,0,0,0,4.7-13.73l6.54,2.49c.32.14.69.23.69.51,0,.55-.74.69-1.43.78a73.68,73.68,0,0,1-3.36,10.23h10.59a24.93,24.93,0,0,1-3-8.52H148.6v-5.95h8.61c.28,8.25,1,10.14,6.59,15.8a16.12,16.12,0,0,0-4.42,4.84,8.74,8.74,0,0,1-.74-.55c.09,19.11-.32,20.5-10.5,20.82a15.35,15.35,0,0,0-2.17-7.05,32.72,32.72,0,0,0,3.92.42c1.52,0,2.07-.46,2.25-3.5.1-1.53.24-7.1.14-10.14H149.1c-.27,7.19-2.44,11.56-4.23,14.28a21.07,21.07,0,0,1-6.64,6.27,23.77,23.77,0,0,0-4.7-4.7c7.05-4.38,8.89-7.93,9.22-15.85Z"/><path class="cls-1" d="M167.43,179.52v-6.63h26.08V166H168.77v-6.49h24.74v-6.45H168v-6.73h33v35.06h-7.51v-1.89Z"/><path class="cls-1" d="M248.41,159.07v7.83h-40v-7.83Z"/><path class="cls-1" d="M284.07,148.84a7.69,7.69,0,0,0,3.27-.69l3.82,3.27c-.83,1.38-3.64,7.69-4.7,10-7.09,15.94-17.32,21-21.37,23.08-.79-1-2.08-2.53-5.95-5.25a42.36,42.36,0,0,0,15-10.92c3.73-4.51,5.84-10.09,6.86-12.9H269.46a63.37,63.37,0,0,1-10.36,11.8c-2.49-2.63-3.41-3.6-5.62-5,11.19-9.49,14.09-17.6,15.11-20.36l6.63,3.22c.18.1.6.33.6.7s-.65.59-1.11.64c-.73,1.43-.87,1.8-1.19,2.35Zm-1.48-8.34a38.32,38.32,0,0,1,4.52,4.42,41.51,41.51,0,0,0-3.78,2.58,40.76,40.76,0,0,0-4.38-4.42Zm7.33-.5a43.07,43.07,0,0,1,4.51,4.74c-.6.41-3.32,2.17-3.87,2.53a24.77,24.77,0,0,0-4.14-4.83Z"/><path class="cls-1" d="M313.31,145.2c.51.05,1.06.05,1.06.65s-.6.78-.78.87V158c0,12.12-5.9,17.23-11.43,22-2-2.35-3.36-3.17-6.21-5a24.51,24.51,0,0,0,7.46-7.09c.55-.88,2.26-3.55,2.26-9.44V144.83Zm11.75-.37c.51,0,.87,0,.87.51s-.46.64-.87.83V168.6c5.67-3.73,10.13-9.53,11.93-12.07a21.26,21.26,0,0,0,3.55,6.91,78.86,78.86,0,0,1-13,12.76c-1.84,1.34-3.64,2.77-5.43,4.15l-4.89-3.13c.1-1.25.19-2.4.19-3.69V144.42Z"/><path class="cls-1" d="M359.47,154.46c6.81,3.45,12.66,7.42,16.07,10.83-2.07,3-2.3,3.31-4.33,6.45a67.61,67.61,0,0,0-14.37-10.23v21.6h-7.78V142.44l7.78.37c.32,0,.88,0,.88.5s-.51.65-.88.74v14.1Z"/><path class="cls-1" d="M13.13,198.36l7.37-1c.32,0,1-.09,1,.46s-.33.69-.69,1l.87,6L32,203.47l.78,6.72-10.13,1.39.69,4.79,15.34-2,.78,6.77-15.11,2,2.12,14.52-7.37,1.24L17,224.15.83,226.27,0,219.36l15.94-2.07-.69-4.75L4,214l-.83-6.91,11.05-1.38Z"/><path class="cls-1" d="M52.51,205.77,59,205c.42-.05,1-.14,1,.41,0,.37-.37.65-.69.88L60.57,213l11.1-2.26a3.91,3.91,0,0,0,2.12-1.24l4.47,3.36c-1.93,2.35-4.51,7.05-7.74,12.9a41.69,41.69,0,0,0-6-2.9,33,33,0,0,0,3.36-5.26L61.72,219l3.51,17.82L59,238.25l-3.55-17.88-9.26,2.08-1.75-6.27,9.82-2Z"/><path class="cls-1" d="M87.56,198.45c7.74,4,10.14,6.26,11.52,7.55-1.11,1.34-1.43,1.84-4.47,6.27A47.24,47.24,0,0,0,83,204.9Zm-3.77,31.83c13.13-2.72,26.07-11.61,34.27-24.78a29.51,29.51,0,0,0,4.74,6.26,61,61,0,0,1-14.32,15.34,76.26,76.26,0,0,1-19,10.27c0,.51-.23,1-.65,1-.27,0-.46-.14-.73-.65Z"/><path class="cls-1" d="M124.27,218.39c3.09-2.25,3.83-3,10.28-10.31,4.33-4.84,6-6.27,8.66-6.27,2.95,0,4.37,1.75,7.6,5.67,5.48,6.68,11.15,13.26,18,18.56-1.75,2.21-4,5.48-4.88,6.73A247.83,247.83,0,0,1,146,212.36c-1.84-2.35-2.49-2.35-3-2.35-1.06,0-2.53,1.7-3.64,3-2.16,2.54-6.72,8.48-8.2,10.74a1.83,1.83,0,0,1,.14.6.46.46,0,0,1-.41.5,1.16,1.16,0,0,1-.79-.46Zm40.54-16.81a4.33,4.33,0,1,1-4.33-4.33A4.32,4.32,0,0,1,164.81,201.58Zm-6.35,0a2,2,0,0,0,2,2,2,2,0,1,0-2-2Z"/><path class="cls-1" d="M212.21,214.34v7.83h-40v-7.83Z"/><path class="cls-1" d="M223.17,198.45c7.74,4,10.13,6.26,11.52,7.55-1.11,1.34-1.43,1.84-4.47,6.27a47.43,47.43,0,0,0-11.61-7.37Zm-3.78,31.83c13.13-2.72,26.07-11.61,34.27-24.78a29.85,29.85,0,0,0,4.75,6.26,60.85,60.85,0,0,1-14.33,15.34,76.26,76.26,0,0,1-19,10.27c0,.51-.23,1-.64,1s-.46-.14-.74-.65Z"/><path class="cls-1" d="M296.59,215.54v5.11H284.66a9.38,9.38,0,0,1-.18,1.61h17.78v5.3H288.49a28.24,28.24,0,0,0,14.41,5.62,19.76,19.76,0,0,0-3.64,6c-2.21-.42-11.37-2.68-17.59-9.68-2.72,3.87-8.25,8.2-16.86,9.81a23.13,23.13,0,0,0-3.5-5.89c4.74-.37,10.5-1.71,13.91-5.9h-14v-5.3h16.4c.05-.37.14-.78.23-1.61H266.93v-5.11h11.24v-1.75H266.24V212H261V200.61h17v-3.54l7.32.18c.6,0,1.06.23,1.06.6s-.37.55-1.06.92v1.84h17.09v11.06H297v2.12H285c0,.73,0,1.29,0,1.75Zm-18.42-9.68H267.48v2.86h10.69Zm6.86,2.86H295.9v-2.86h-9.76a.51.51,0,0,1,.13.33c0,.55-.59.69-1.24.83Z"/><path class="cls-1" d="M334.18,214v-6.5l5.8.42c.69,0,1,.37,1,.6s-.65.64-1,.73v2.95l5.12-1.61,3,1.24v11.43c0,3.54-1.89,4.7-3.23,5.29a8.53,8.53,0,0,0,5.3,2.49,12,12,0,0,1-1,4.52c-1.66,3.13-5.26,3.17-5.72,3.17h-9.9c-6.82,0-7.14-4.56-7.14-5.89V223l-2.07.65c-.46,12.21-1.25,15-9.13,15.85a13.85,13.85,0,0,0-1.42-5.76,18.75,18.75,0,0,1-2.77,5.06,15.31,15.31,0,0,0-5.71-3.36,31.43,31.43,0,0,0,4.93-14.32c.18-2.58.18-4.57.14-12.17h-4.15v-5.8h6.63v-6.4l6.78.27c.41,0,1.15.1,1.15.74,0,.37-.37.6-1.15.87v4.52h5.2v3c3.46-5,4.1-8.43,4.33-9.62l6.22,1.75a.68.68,0,0,1,.65.64c0,.42-.33.6-1,.88-.32.87-.41,1.15-.6,1.56H349.1v5.44H331.92a42.1,42.1,0,0,1-2.35,3.87l2.9.14c.56,0,.79.37.79.69s-.28.5-.79.78v2.3ZM317,218.39a44.9,44.9,0,0,1-2.77,14.28,10,10,0,0,0,1.94.24c1.38,0,2-1.16,2.39-4.7a87.23,87.23,0,0,0,.46-9.82Zm.09-9.49v3.55h6.58a18.59,18.59,0,0,0-2.81-1.52,20.15,20.15,0,0,0,1.94-2Zm9.35,7.56v-2a14.72,14.72,0,0,0-2.12-1.56c.05,1.42.05,2.81.09,4.19Zm6,4.56v9.31a2.48,2.48,0,0,0,2.67,2.53h6.09c2.71,0,2.94-1.38,3.08-4.06a10.53,10.53,0,0,1-2.67.37,12.54,12.54,0,0,0-1.66-4.74v5.62h-5.8v-9.58Zm7.51-2.4v4.66c2.12-.05,2.12-1.52,2.12-2.12v-3.23Z"/><path class="cls-1" d="M377.38,239.17h-7V225.76H361v1.89h-7.19v-22.2h16.54V197l7.6.42c.23,0,.74,0,.74.55s-.65.69-1.34.78v6.73h16.54v22.2h-7.05v-1.89h-9.49Zm-7-27.46H361v7.47h9.35Zm7,7.47h9.49v-7.47h-9.49Z"/><path class="cls-1" d="M408,199.41v10.74l-1.66,13.54h-4.42l-1.71-13.54V199.41Zm-7.74,28.52H408v7.78h-7.74Z"/><path class="cls-2" d="M54.3,81a4,4,0,0,0-1.1,1.63,3.47,3.47,0,0,1-1.47,1.74l.19.35c-.06.2-.13.39-.19.58l-3.18.7a7.62,7.62,0,0,1-3.93-2.44,30.77,30.77,0,0,1-4.91-9.88,27.69,27.69,0,0,1-1.62-10.93,2,2,0,0,1-.1-.93c.08-.54.69-1,1.83-1.4a2.72,2.72,0,0,1-.08-1,23,23,0,0,1,2.37-2.79,23.71,23.71,0,0,1,8.41-1.51,7.57,7.57,0,0,0,2-.35l.5.58c0,.15,0,.31,0,.47l-.18.46.32.23a10.68,10.68,0,0,0,.05,2.21c-1.54,1.16-2.55,3.45-3,6.86a11.27,11.27,0,0,0,.23,4.3l-.63.35C52.88,73.83,54.37,77.43,54.3,81Zm84.47-17.55c-.1.42-.21.85-.31,1.28a10.43,10.43,0,0,0-1.78.69,2,2,0,0,0-1,1.52l-.59.11-.57-.23-.5.58.8.35c-.4.08-.95.19-1.66.35l-.26.46a18.59,18.59,0,0,1-4.35-4q-2.54-3-2.86-3.2l-.12.12a1.89,1.89,0,0,0-.15.47c.15.58.31,1.16.46,1.74-.69,2.17-2.6,3.26-5.71,3.26a7.17,7.17,0,0,1-3.42-1,3.52,3.52,0,0,1-2-2.5,2.86,2.86,0,0,0-2.13-1c-3.94,1.78-6.66,2.68-8.13,2.68a9.38,9.38,0,0,1-4.87-1.46,8.16,8.16,0,0,1-3.38-3.54,3.17,3.17,0,0,1,2.66-1.17,10.73,10.73,0,0,0,2.93-.46,11.56,11.56,0,0,1,3.73,1.05,14.8,14.8,0,0,0,1.36,1.74,2.23,2.23,0,0,0,2,.93,13.93,13.93,0,0,0,3.62-1.75,19.26,19.26,0,0,1,4.1-2A42.06,42.06,0,0,1,124.53,61l1.09-.7a18.52,18.52,0,0,0-1.28-4.88,5.66,5.66,0,0,0-3.83-2.79,12.88,12.88,0,0,1-3.28-.7l-1.07.35q-4.22-.59-12.72-1.86l-1.91.81-.62-.81-1,.81-.94-1-.24.12-.33-.12a2,2,0,0,0-.93.12,7.08,7.08,0,0,1-2.06,1.05l-.25.23-.44-.23-2.46.46L91.55,51a8,8,0,0,1-1.66.46l-.27.35h-.34l-.26.24.21.23c0-.23-.14-.15-.48.23,0,.12,0,.23,0,.35l-.4-.58-.72.23-.66-.23h-.35c0,.08-.09.15-.14.23l.06.58a4.48,4.48,0,0,0-1-.12,1.28,1.28,0,0,0-.52.59L83.86,53a40.23,40.23,0,0,0-3.68,2.1l-.76-.47A22.62,22.62,0,0,1,74.93,57a14.61,14.61,0,0,0-4.42,2.68l.33.11.48-.11A16.18,16.18,0,0,0,74.65,61h-.12l-.14.23c0,.11,0,.23.08.35s0,.23.07.35l.15-.24.24-.11h.35l.19.35c.38.77.9,2,1.57,3.6a9.17,9.17,0,0,0,1.35,4.65c-.13.85-.26,1.71-.4,2.56l.24,2.09a37.12,37.12,0,0,1-2.76,2.67l-1-.11-4,1.28a3.33,3.33,0,0,1-2.53-1c-.66-.7-1.3-1.39-1.92-2.09a17.24,17.24,0,0,1-2.49-1.75,6.29,6.29,0,0,1-2-2.9,8.58,8.58,0,0,1-.89-3.61l-.31-.34c.19-.55.37-1.09.56-1.63l-.38-.7,1-1.86c-.09-.19-.18-.39-.28-.58a4.18,4.18,0,0,1,2.89-1.75l.06-.46a4.1,4.1,0,0,0-1.68-.46,7.36,7.36,0,0,0-2.52.63,15.23,15.23,0,0,1-2.18.76A4.21,4.21,0,0,1,55.42,60a13.7,13.7,0,0,1,7-5.11,64.54,64.54,0,0,0,7.4-3A14.91,14.91,0,0,0,65.12,50l-1.42.35a4.74,4.74,0,0,0-2.77-.81,6.55,6.55,0,0,0-2.36.46l-.28-.46-.55-.24a7.74,7.74,0,0,0-1.16.12.88.88,0,0,0-.71-.7,3,3,0,0,0-1.15,0,2.06,2.06,0,0,1-1,0H53l-.64-1.16h-.81a5.17,5.17,0,0,0-.23-.81,18.5,18.5,0,0,1-1.83-.82c.07-.27.15-.54.22-.81a1.47,1.47,0,0,1-.91-.81l-.87-.35a4.23,4.23,0,0,1-1.36-2.44l.21-.7c-.48-.39-.83-1.65-1.06-3.78a15.61,15.61,0,0,1,0-4.48c.09-.15,1.45-1.16,4-3,.06.08.21.12.43.12l.25-.12a6,6,0,0,1,1-.46l.44.11.35-.11.21.11h.34l.61-.35a2.47,2.47,0,0,0,1.21.24c.23-.08.59-.24,1.08-.47a10.31,10.31,0,0,0,3.55-.46,10.19,10.19,0,0,1,2.51,1.51,3.63,3.63,0,0,1,.92-.12,7.82,7.82,0,0,1,3.22,1.28l.82-.23a13.1,13.1,0,0,0,3,2.09c.33.46,2.28,2.64,5.92,6.51A16.49,16.49,0,0,1,80,46.7c-.34.31-.81.81-1.43,1.51l-.3.7.3.34.56.12c1-.31,1.87-.66,2.76-1a6.25,6.25,0,0,1,3,0c0-.31.27-.35.7-.12A22.3,22.3,0,0,1,95.25,46l1.42.7q1.48-1.17,7.44-1.17a14.17,14.17,0,0,0,2-.17,16,16,0,0,1,2-.17,24.11,24.11,0,0,1,3.57.4,23.32,23.32,0,0,0,3.69.41,12.35,12.35,0,0,0,3.09-.76,13.08,13.08,0,0,1,4-.75,20.6,20.6,0,0,1,8.43,2.21q5.34,2.32,6.79,5.23a10.1,10.1,0,0,0-.34,1.74,10.86,10.86,0,0,1,1.11,4.77C138.61,60.07,138.71,61.74,138.77,63.44ZM139,102.5a3.27,3.27,0,0,0-1.16,1.28c-.36.62-.67,1.2-.94,1.74a29.27,29.27,0,0,0-3.3,2.68c-1,.93-2,1.86-2.95,2.79-1.29,1.23-1.88,2.28-1.77,3.13-.08,0-.94.12-2.58.35q-1.71.24-1.89,1c0-.08,0-.16,0-.23l-.24-.12-.11-.12-.13.12-3.4,1.63c-.48-.08-.72-.08-.73,0l-.6-.12a14.81,14.81,0,0,0-1.49.47l-.46-.35-5.84-1.63-.87.23a1.32,1.32,0,0,0-.32-.58l-.34-.23a11,11,0,0,0-1.79-.47l-.37.12-.39.35c0-.19,0-.39,0-.58l-.45-.35-.36-.12-.25.12a.59.59,0,0,0,.2.46l-.5.24-.33-.47h-1.09c-.05-.31-.11-.62-.17-.93l-.23-.11c-.26.19-.52.38-.77.58a1.94,1.94,0,0,1,0-.24.39.39,0,0,1,.27-.34,5.81,5.81,0,0,0-1.77-.59l-.53.47-5.4-2a8.77,8.77,0,0,0-2.75.93c-5.14,5.74-9.07,8.61-11.67,8.61-.71-.24-1.76-.63-3.17-1.17a4,4,0,0,1-.31-2.26,11.8,11.8,0,0,0,0-2l.48-1,.28-.35.5-.12.71.12a63.48,63.48,0,0,1,7.73-5.7L88,107l-.33-.35a15,15,0,0,1-4.84-2.2l-1.11.23c-.23-.08-1.8-.89-4.67-2.44a12.06,12.06,0,0,0-5-1.63,7.37,7.37,0,0,0-5.15,2c-1.44,1.33-2.84,2.6-4.19,3.84-.71.55-1.75,1.44-3.11,2.68a38.84,38.84,0,0,0-2.7,3.25,12.56,12.56,0,0,1-4,2.67,4.57,4.57,0,0,1-3.22-2.32,6.14,6.14,0,0,1-.92-4.07,11.78,11.78,0,0,1,2.42-5.58c1.37-.62,2.73-1.28,4.1-2a5.42,5.42,0,0,0,2.77-2.9,98.34,98.34,0,0,1,10.28-8c5.27-3.75,8.79-6,10.61-6.8q2.07-.57,6.38-2.21a4.53,4.53,0,0,1,4.07,3c1,2.48,1.76,3.82,2.21,4a3.92,3.92,0,0,0,1.52.29,22.26,22.26,0,0,0,4.82-.76,22.66,22.66,0,0,1,4.82-.75,19.24,19.24,0,0,1,8.6,2.21,22.42,22.42,0,0,0,2.46,3.48,26.48,26.48,0,0,1-4.75,4.19c-2,1.63-3.23,3.25-3.52,4.88a30.54,30.54,0,0,0,3.68.47,9,9,0,0,0,1.83-.29,8.34,8.34,0,0,1,1.83-.29,30.52,30.52,0,0,1,3.42.75,21.16,21.16,0,0,1,3.42,1l1.57-.12a14.3,14.3,0,0,0,5.36.82,27.32,27.32,0,0,0,11.45-2.21ZM114.73,18A8.69,8.69,0,0,1,110,19.61c.68-.08-.92-.11-4.79-.12l-5.48,1.17-2.08-.47Q93.61,21.59,89,23.68q-.9,0-5.17,2.09-.64-.22-2-.81c-.16.08-1,.35-2.56.81l-1.77-.23-.91,1-1.1-.23-1.63.47a10.16,10.16,0,0,0-2.32-2.21c1-3.1,4-6.55,8.93-10.35a8.29,8.29,0,0,0,2.48-1.33A6.19,6.19,0,0,1,86.4,11.7L87,11l.08.23.21.12.21.11.35-.11,1-.82c.18-.31.69-.54,1.52-.69A5.61,5.61,0,0,0,93,8.28a5,5,0,0,1,2.19-1.46l2.64.12c.69.46,2.14.74,4.34.81a43.12,43.12,0,0,1,5.1.47,4.12,4.12,0,0,1,2,1.28,22.2,22.2,0,0,0,2,1.62c.85.39,2.06,1,3.62,1.86-.23.89-.45,1.79-.67,2.68ZM95.19,35.07l-1.33,2c0,.46-.1.93-.14,1.39a17,17,0,0,0-2.42.88,8.29,8.29,0,0,1-2.75.75c-.61,0-1.37-.6-2.26-1.8a7,7,0,0,0-3.53-2.5A7.2,7.2,0,0,0,81.25,31l.48-1.28c0-.69-.07-1.39-.11-2.09a28.45,28.45,0,0,1,5.45-.35q2.36,0,4.84,3.26C93,32,94.06,33.52,95.19,35.07Zm16.3,42.32-.75,2a58.32,58.32,0,0,1-7.33,2.27,36.44,36.44,0,0,1-7.17,1.45,6.44,6.44,0,0,1-3.31-1.16,6.44,6.44,0,0,0-3-1.16,31.28,31.28,0,0,1-5.33-5.46,58.9,58.9,0,0,1-3.28-6.63c-1.39-2.94-2-4.84-1.94-5.7a2.44,2.44,0,0,1,.48-1.16,7.94,7.94,0,0,0,1.59-1.28c.73-.69,1.25-1,1.56-1a3,3,0,0,1,1.64.92A7.81,7.81,0,0,0,86,60.3h1.28c1.78,0,3.47,1.59,5.09,4.77.15,4,1.9,6.82,5.28,8.37a10.83,10.83,0,0,0,3.76,1.16l2.73-.35a5.73,5.73,0,0,1,4.22.81C109.4,75.84,110.45,76.61,111.49,77.39ZM97.8,94.48a7.15,7.15,0,0,0-3.6-1H92.65c-2.62,0-4.13.31-4.51.93a17.79,17.79,0,0,1,4.14,2.91,5.84,5.84,0,0,1,1.76.4,5.76,5.76,0,0,0,1.88.41,21.66,21.66,0,0,0,1.45-2.79A1.21,1.21,0,0,1,97.8,94.48Zm23.37-65.8q-.33,4.41-4.81,8a69.81,69.81,0,0,0-6.87,6,7.86,7.86,0,0,0-1.62.3,8.27,8.27,0,0,1-1.74.29,4.7,4.7,0,0,1-2.81-1.11,2,2,0,0,1-1-2.38l-.18-.47,0-.35a24.36,24.36,0,0,1,1.4-2.9V36l-.21-.11c.72-2.17,1.64-3.53,2.74-4.07a5,5,0,0,1,1.08-2,7,7,0,0,0,1.21-2.21c2.83-2.4,5.17-3.6,7-3.6a6.92,6.92,0,0,1,3.88,1.33A3.57,3.57,0,0,1,121.17,28.68Z"/><path class="cls-2" d="M250.87,67.39a10.24,10.24,0,0,0-.76,4.42c0,3-.05,4.57,0,4.65l-.71.11-.22.24a9.56,9.56,0,0,1-1.82,4.76c-.2,1-.51,2.4-.91,4.19a27.34,27.34,0,0,0-1.9,3.49c-.13.69-.38,1.7-.73,3,0-.16,0-.31,0-.47a4.73,4.73,0,0,0-.46.7c0,.51,0,1-.07,1.51l-.71.24q-.33.47-2.34,5.34c.41-2.48,1-4,1.77-4.53a61.8,61.8,0,0,0,2.15-17.56c-.33-.3-.73-1.6-1.2-3.89a20.87,20.87,0,0,1-.61-4.36l.22-.35a21.93,21.93,0,0,0-2.82-4.3c0-1.86-1.29-4.11-3.68-6.74l-1,.23c.24.31.63.78,1.19,1.4,0,.15-.07.31-.1.46l-.13-.46a4.76,4.76,0,0,1-.95-1.05c0-.2,0-.39,0-.58-.33-.78-.78-1.71-1.34-2.79a2.18,2.18,0,0,1-1.4-.58,16.93,16.93,0,0,1-1.3-1.17l-2.44-1h-1.61a2.85,2.85,0,0,0-1.4-1.05l-1.74-.7-.47-.58-.91.47a49.22,49.22,0,0,1-4.62-1.75,2.3,2.3,0,0,1-1,.24,4.48,4.48,0,0,1-1-.18,4.19,4.19,0,0,0-1-.17h-.69l-.34.35-.58-.35a23.79,23.79,0,0,1-2.29.69l-.12-.46v-.12l-.11.12-1.37,2v.46a11.94,11.94,0,0,1,.82,1.86c-.08.27-.15.54-.23.81a4.58,4.58,0,0,1,.53,2.27,5,5,0,0,0,.42,2.15,5.29,5.29,0,0,0-.57,2.56c0,.89,0,1.78,0,2.67-.46.93-1,2.18-1.73,3.72a9.06,9.06,0,0,1-.69,3.26c-.39,1.08-.78,2.21-1.17,3.37-.15.54-.42,1.9-.81,4.07a22,22,0,0,1-.94,2.67c-.24.55-.88,2.81-2,6.8s-1.66,6.3-1.74,6.92l.36,1.63-.36.23q-.24.59-.72,1.8c-.33.82-.75,2-1.28,3.61s-1,3.12-1.53,4.59a10,10,0,0,1-2.68,4.07c-.32-.08-1.08-.86-2.28-2.33a9.3,9.3,0,0,1-3.37-.93,37,37,0,0,1-3.09-3.31,17.89,17.89,0,0,1-2.7-3.55c-.16-.46-.38-1.24-.68-2.32l-3.63-3.72a15,15,0,0,0-4.11-2.91l-.72.12q-4.05,0-9.61-4.42a2.73,2.73,0,0,0-1.95-2,10.83,10.83,0,0,0-1.59-3.42A14.42,14.42,0,0,1,159.39,77c.09-.19.17-.39.26-.58-.07-1.32-.13-2.64-.2-3.95.1-2.41.31-3.8.63-4.19a4,4,0,0,1-.38-2.09c0-.58,0-1.16.07-1.75a13.29,13.29,0,0,0,2-3.25,5,5,0,0,1,2.07-2.56c-.07-.31-.14-.62-.2-.93.3-1.94.91-3,1.84-3.14.12-.23.25-.46.37-.7.06.62.11,1.25.17,1.87,0-.12-.07-.24-.11-.35l-.22-.12-.24.12c-.17.54-.87,2.87-2.1,7a2.89,2.89,0,0,0,.2,1,5.63,5.63,0,0,0-.16,1,3.94,3.94,0,0,0,.51,2.21l-.92-.46c-.21.54-.43,1.08-.64,1.63l.57.46,1.55-1c0-.46-.05-.93-.07-1.39.18-5.12,2.78-11.51,7.66-19.18a4.05,4.05,0,0,0-.14.81,2.94,2.94,0,0,0,.09.82c1.21-1.94,2.2-3.41,3-4.42a39,39,0,0,1,3.45-3.55,17.28,17.28,0,0,1,3.36-2.85,6,6,0,0,1,1.31-.11l1.28-1.51,1-.59.45-.11.33.7c.08-.24.2-.54.36-.93l.46-.47a14.44,14.44,0,0,0,1.81-.35,5,5,0,0,0,1.61-1.28,17.62,17.62,0,0,0,3.29-1.16l.56.35a1.31,1.31,0,0,1,.57-.64q.45-.29,1.47-.87l.34.11,4.18-1.16.34-.35a2.45,2.45,0,0,1,1.24.12,2.56,2.56,0,0,1,1.81-.93,2,2,0,0,1,.9.23,1.55,1.55,0,0,1,.56-.7H206c-.08,0,.07,0,.45.12a2.19,2.19,0,0,0,1.46.58h.23a1.8,1.8,0,0,1,.45-.7l.45.24,2.14-.24c.37.24.75.47,1.13.7l.56-.46,1.92.93a4.77,4.77,0,0,0,.9-.35l.34.23a3.38,3.38,0,0,1,2.15.7l1.24-.12c.91.31,2.42.86,4.54,1.63,2.44,1.7,5.23,3.53,8.38,5.46l.68.12c.19,1.32,1.34,1.94,3.46,1.86.29.58.57,1.16.85,1.74A6.87,6.87,0,0,1,241.57,44l.71.47v.23c.72.93,1.48,1.82,2.27,2.68a4.58,4.58,0,0,1,1.49,3l1.07.93-.22.23.13.35a2,2,0,0,0,.59.58,2.26,2.26,0,0,0,.28,1.22c.16.19.53.72,1.1,1.57a21.91,21.91,0,0,1,1.1,4.42,34.87,34.87,0,0,0,.65,4.53c-.09.51-.19,1-.29,1.51ZM169.09,49.25a10.49,10.49,0,0,1-.91,1.52,3.93,3.93,0,0,0-.81,1.74,1.4,1.4,0,0,0,.1.58c-.55.31-.94.43-1.16.35l-.11-.23c0-.2,0-.39,0-.58l-.11-.24h-.23a3.34,3.34,0,0,1,1.22-2.09c1.18-.93,1.81-1.43,1.89-1.51A2,2,0,0,1,169.09,49.25Zm.85-1.51a4.34,4.34,0,0,1-.59.47l.47-.47Zm31.16,4.54-.22-.23a1,1,0,0,0-.46-.12l-.12.12a5.31,5.31,0,0,0-3,.69c-.7.47-1.39,1-2.09,1.51q-1,.12-3.83,2.44a21.41,21.41,0,0,0-3.52,3.38q-.7,1-2.13,2.79A45.88,45.88,0,0,0,181.26,66q-.12.1-2.41,3.6l-.47.23a12.78,12.78,0,0,0-.42,2.91,7,7,0,0,0,1.42,4.76c0,.2,0,.39,0,.59l.92.81c0,.12,0,.23,0,.35,2.39,6.35,5,9.88,7.87,10.58l1.8-1.4q.75-2.55,2.1-7.67c0-.23-.07-.47-.11-.7q1.74-7.2,2.69-10.93A64.54,64.54,0,0,1,198,59a12,12,0,0,0,.93-1.63,16.73,16.73,0,0,0,.48-2.32A7.31,7.31,0,0,1,201.1,52.28Z"/><path class="cls-2" d="M376.42,101l-1.53,1c0,.2.05.39.08.58a7.83,7.83,0,0,0,1.41,1.4c-.38.7-1,1.78-1.94,3.26a26.17,26.17,0,0,1-3.18.11c-1.74,0-2.47,0-2.22.12l-2.58.58a2.19,2.19,0,0,0-1.63-.47L363,107.5l-.54.46a3.12,3.12,0,0,0-2.18-.93,8.2,8.2,0,0,1-2.49-.58,57.32,57.32,0,0,1-6,.12c-1.59.23-3.24.54-5,.93l-1.58-.12c.08,0-.55.16-1.88.47-1.37,0-3.33.11-5.88.35a127.59,127.59,0,0,0-14,2.67c-7.58,1.7-11.76,2.95-12.5,3.72l-1-.23-4.28,1.16a10,10,0,0,1-2.77-1.16l-.59.11a13.59,13.59,0,0,1-2.83-1.86c-1.38-1.16-2.25-1.86-2.59-2.09a17.56,17.56,0,0,1-2.26-1.16c-.1-.16-.06-.23.1-.23l-.15-.35h-.85a52.26,52.26,0,0,0-3.1-4.42,9,9,0,0,1-2.26-4.65l.33-2.09c-.15-.39-.3-.78-.44-1.17.34-.77,1.47-1.16,3.38-1.16a38.35,38.35,0,0,1,8.14,1.63l0,.35h.35a6,6,0,0,1,3,1.51,14.32,14.32,0,0,0,2.6,1.74,66.84,66.84,0,0,0,7.18,2.33l1.89-.35,1.37.46c.23-.07,1.91-.15,5-.23.79-.08,1.43-.15,1.9-.23l1.72.35.68-.35h.85l.78-.58.75.35,1.64-.47h1.56a1,1,0,0,1,.37.12,1,1,0,0,0,.38.11l-.09-.81a24.53,24.53,0,0,1-1.21-2.33A25.16,25.16,0,0,0,330,96.1a3.72,3.72,0,0,1,.38-2l.44-.35c-1.31-.31-2-.46-2.08-.46l-.09.23a26.15,26.15,0,0,0-4.07-1.28,1.53,1.53,0,0,0-1.15.46,62.49,62.49,0,0,1-5.82-4.65c-.1-.19-.19-.38-.29-.58-2.44-.7-5.29-2.75-8.51-6.16,1-2.4,3.45-3.84,7.49-4.3l.5.35c.76-.31,1.57-.6,2.44-.87a4,4,0,0,1,2.41-.06l.56-.23,1.44.23,2.42-.47a18.18,18.18,0,0,1,4.2.82c.11-.47.26-1.21.46-2.21l.32-.35c-.06-.16-.12-.31-.17-.47a.83.83,0,0,1-.51-.34c.06-.16.25-.54.57-1.17a9.83,9.83,0,0,0-.61-1.28l0-.34h-2.46a36.1,36.1,0,0,0-5.53.81q-4.49.81-4.79,1.28A37,37,0,0,0,313,71.46a8.58,8.58,0,0,1-4.3-2.21,8,8,0,0,1-3.32-1.86,9.33,9.33,0,0,0-2.48-1.74,10.23,10.23,0,0,0-4.47-4.77l-.18-.7c-.79-1.16-1.66-2.44-2.63-3.83a5.41,5.41,0,0,1-1-1.05c0-.31-.05-.62-.08-.93a6.44,6.44,0,0,1-1.44-2.27c-.56-1.2-1-1.84-1.42-1.92l-.28-.69A2.59,2.59,0,0,1,290.09,48a2.16,2.16,0,0,1,.13-1.28L288.6,45c0-.31,0-.62,0-.93l-1.09-.81.28-.81a2.88,2.88,0,0,1-.93-.24l-.29-.81.09-.35a2,2,0,0,0,.53-.58,24.58,24.58,0,0,0-1.84-3.26c.24-1.93.38-2.63.42-2.09q-.76-2.55-1.35-4.53l-.48-.35c.14-.62.29-1.24.43-1.86-.14-.35-.28-.7-.41-1,.43-.23.89-1,1.39-2.44a2.32,2.32,0,0,1,2.24-1.51l.72-.81.22-.12a1.67,1.67,0,0,1,.52-.58,1.41,1.41,0,0,0,.66-.12c.16.23.37.51.62.82l0-.35c0-.08.07-.16.1-.23h.22l.37.34c-.16.43-.31.86-.46,1.28l2.29.58.7-1a3,3,0,0,1,2.83,1.74l1.57-.11a17,17,0,0,0,1.35,1.39l.7.23a4.22,4.22,0,0,0,1.16,1.75l.63-.58a14.42,14.42,0,0,0,3.46,2.2c2.13,1,3.39,1.63,3.79,1.86a49.84,49.84,0,0,0,4.05,3.26,2.7,2.7,0,0,0,.17.58c0,.12,0,.23-.08.35l1.42,1.74a43.78,43.78,0,0,1,7.85-.93,12.7,12.7,0,0,0,3.67-.69,8.74,8.74,0,0,0-1.27-2.33l0-.35Q327,30,330.11,30a1.12,1.12,0,0,1,.55-.12,5.4,5.4,0,0,1,1.17.35c.12-.23.26-.35.41-.35s.65.12,1.74.35a6,6,0,0,1,.75,2.56,7.15,7.15,0,0,1-.1,3c.15-.08.29,0,.43.23a1,1,0,0,0,.89.35l.24.12c.26.23.64.62,1.16,1.16,0,.08.08.31.2.7l.25.23a1.85,1.85,0,0,1,.76.58,5.15,5.15,0,0,1,.09,1.74l.26.24.74.46c.09.16.19.35.3.58-.74.86-1.79,2.18-3.18,4a3.4,3.4,0,0,0-3.26,2.55,14.54,14.54,0,0,0,.07,4.54,23.87,23.87,0,0,1,0,4.18c.31.62.61,1.24.91,1.86,3.46-.77,5-2.48,4.72-5.11a5.56,5.56,0,0,0-.39-1.28,5.44,5.44,0,0,1-.38-1.28l.09-.23.1-.12.36.12,4,2.79c-.2-12.87-.55-21-1-24.3a11.25,11.25,0,0,0-1.92-4.53,9.2,9.2,0,0,0-3.66-.58,17.37,17.37,0,0,1-3.62-.24,39.46,39.46,0,0,1-6.15-2.79A33,33,0,0,1,321,18.33c.93-.73,1.85-1.47,2.77-2.21.44-.07,1.15-.25,2.12-.52a9.26,9.26,0,0,1,2.34-.41q3.42.71,8.22,1.63a7.42,7.42,0,0,1,5.24-1.74,34.82,34.82,0,0,1,5.49,1.16,2.87,2.87,0,0,1,1.6,1.16l.32-.11,1.29.46a7.71,7.71,0,0,1,2,.93l.55-.12.27.35a15.51,15.51,0,0,1,4.91,4.77l.39.35A2.55,2.55,0,0,1,360,25.19c-.28.7-.73,1.75-1.36,3.14-.07,1.08-.15,2.4-.24,4,.07.23.14.47.22.7-.06,1-.11,1.94-.17,2.91.21.38.41.77.62,1.16a10.49,10.49,0,0,0-.51,3.66,11.88,11.88,0,0,1-.34,3.31,9,9,0,0,1-1.1,2,11.79,11.79,0,0,0-1.21,4.59,19.29,19.29,0,0,0-.14,4.88c-.37.74-.73,1.48-1.1,2.21a13.36,13.36,0,0,1-.28,3.95,27.39,27.39,0,0,0-.4,4.07h-1c-.23.08-.46.93-.72,2.56l-1.14.23c-2.33,0-3.35,0-3.05-.11a7.13,7.13,0,0,1-3.48-2.68,19.37,19.37,0,0,0-2.51-3.37c.05-.27.09-.54.14-.81l-.48-1a13.88,13.88,0,0,0-2.88,4.07,5.08,5.08,0,0,0-1.26.12c-.53.15-1,1-1.53,2.38a8.1,8.1,0,0,0-.63,3.2c0,.07.32,1.74.93,5,.41.15,1.06.39,2,.69a6.34,6.34,0,0,1,2.16-.58,3.11,3.11,0,0,1,.87.35,3,3,0,0,1,1.15-.23,5.65,5.65,0,0,1,2.17.46,28.9,28.9,0,0,0,6.11,2.79,5,5,0,0,1,2,1.4h-.36a.9.9,0,0,1-.21.58,1.19,1.19,0,0,1-.6.46l-.2.24c0,.11,0,.23,0,.35l1.39,1.62c-.14.16-.87.91-2.19,2.27a19,19,0,0,1-2.12,2c-1,.31-2.4.78-4.23,1.4-4.3,1.16-6.35,2.6-6.16,4.3.06.54.27,1.71.64,3.49a11,11,0,0,1,.52,3.49l.39.23a11.41,11.41,0,0,0,2.19.23A15.71,15.71,0,0,0,348,99.71a.42.42,0,0,0-.08.35l.16.35a1.93,1.93,0,0,0,.8.58,13.56,13.56,0,0,0,2.21-.58c.09-.2.19-.39.28-.59,0,0,0,.08,0,.12s.1.23.16.35l.27.23.34-.11a1.46,1.46,0,0,1,1.07-1c.94-.15,1.45-.23,1.53-.23a26.56,26.56,0,0,1,5.63-1.86l.63.23,1.59-.58a53.11,53.11,0,0,1,9.81,1.63l.43,1.27.94-.11h.48C375,100.1,375.71,100.52,376.42,101ZM329.19,60.41q-1.32-11.85-2.34-13.95c-.09-.07-1.64-.5-4.66-1.27S317.55,44,317.32,44c0,.31.07.62.1.93l.49.35a13.56,13.56,0,0,0,.74,2.79,11.43,11.43,0,0,1-.48,2,7.2,7.2,0,0,0-.08,2.67,5.32,5.32,0,0,1-.28,1.8,5.67,5.67,0,0,0-.28,1.81c.1.23.51,1.55,1.21,3.95a4.9,4.9,0,0,0,2.54,3.25h.58A9.88,9.88,0,0,0,329.19,60.41Zm28.67-9.06-.1.11-.22.12c0-.12,0-.23.07-.35a.26.26,0,0,1,.22-.11Z"/><path class="cls-3" d="M54.3,81a4,4,0,0,0-1.1,1.63,3.47,3.47,0,0,1-1.47,1.74l.19.35c-.06.2-.13.39-.19.58l-3.18.7a7.62,7.62,0,0,1-3.93-2.44,30.77,30.77,0,0,1-4.91-9.88,27.69,27.69,0,0,1-1.62-10.93,2,2,0,0,1-.1-.93c.08-.54.69-1,1.83-1.4a2.72,2.72,0,0,1-.08-1,23,23,0,0,1,2.37-2.79,23.71,23.71,0,0,1,8.41-1.51,7.57,7.57,0,0,0,2-.35l.5.58c0,.15,0,.31,0,.47l-.18.46.32.23a10.68,10.68,0,0,0,.05,2.21c-1.54,1.16-2.55,3.45-3,6.86a11.27,11.27,0,0,0,.23,4.3l-.63.35C52.88,73.83,54.37,77.43,54.3,81Zm84.47-17.55c-.1.42-.21.85-.31,1.28a10.43,10.43,0,0,0-1.78.69,2,2,0,0,0-1,1.52l-.59.11-.57-.23-.5.58.8.35c-.4.08-.95.19-1.66.35l-.26.46a18.59,18.59,0,0,1-4.35-4q-2.54-3-2.86-3.2l-.12.12a1.89,1.89,0,0,0-.15.47c.15.58.31,1.16.46,1.74-.69,2.17-2.6,3.26-5.71,3.26a7.17,7.17,0,0,1-3.42-1,3.52,3.52,0,0,1-2-2.5,2.86,2.86,0,0,0-2.13-1c-3.94,1.78-6.66,2.68-8.13,2.68a9.38,9.38,0,0,1-4.87-1.46,8.16,8.16,0,0,1-3.38-3.54,3.17,3.17,0,0,1,2.66-1.17,10.73,10.73,0,0,0,2.93-.46,11.56,11.56,0,0,1,3.73,1.05,14.8,14.8,0,0,0,1.36,1.74,2.23,2.23,0,0,0,2,.93,13.93,13.93,0,0,0,3.62-1.75,19.26,19.26,0,0,1,4.1-2A42.06,42.06,0,0,1,124.53,61l1.09-.7a18.52,18.52,0,0,0-1.28-4.88,5.66,5.66,0,0,0-3.83-2.79,12.88,12.88,0,0,1-3.28-.7l-1.07.35q-4.22-.59-12.72-1.86l-1.91.81-.62-.81-1,.81-.94-1-.24.12-.33-.12a2,2,0,0,0-.93.12,7.08,7.08,0,0,1-2.06,1.05l-.25.23-.44-.23-2.46.46L91.55,51a8,8,0,0,1-1.66.46l-.27.35h-.34l-.26.24.21.23c0-.23-.14-.15-.48.23,0,.12,0,.23,0,.35l-.4-.58-.72.23-.66-.23h-.35c0,.08-.09.15-.14.23l.06.58a4.48,4.48,0,0,0-1-.12,1.28,1.28,0,0,0-.52.59L83.86,53a40.23,40.23,0,0,0-3.68,2.1l-.76-.47A22.62,22.62,0,0,1,74.93,57a14.61,14.61,0,0,0-4.42,2.68l.33.11.48-.11A16.18,16.18,0,0,0,74.65,61h-.12l-.14.23c0,.11,0,.23.08.35s0,.23.07.35l.15-.24.24-.11h.35l.19.35c.38.77.9,2,1.57,3.6a9.17,9.17,0,0,0,1.35,4.65c-.13.85-.26,1.71-.4,2.56l.24,2.09a37.12,37.12,0,0,1-2.76,2.67l-1-.11-4,1.28a3.33,3.33,0,0,1-2.53-1c-.66-.7-1.3-1.39-1.92-2.09a17.24,17.24,0,0,1-2.49-1.75,6.29,6.29,0,0,1-2-2.9,8.58,8.58,0,0,1-.89-3.61l-.31-.34c.19-.55.37-1.09.56-1.63l-.38-.7,1-1.86c-.09-.19-.18-.39-.28-.58a4.18,4.18,0,0,1,2.89-1.75l.06-.46a4.1,4.1,0,0,0-1.68-.46,7.36,7.36,0,0,0-2.52.63,15.23,15.23,0,0,1-2.18.76A4.21,4.21,0,0,1,55.42,60a13.7,13.7,0,0,1,7-5.11,64.54,64.54,0,0,0,7.4-3A14.91,14.91,0,0,0,65.12,50l-1.42.35a4.74,4.74,0,0,0-2.77-.81,6.55,6.55,0,0,0-2.36.46l-.28-.46-.55-.24a7.74,7.74,0,0,0-1.16.12.88.88,0,0,0-.71-.7,3,3,0,0,0-1.15,0,2.06,2.06,0,0,1-1,0H53l-.64-1.16h-.81a5.17,5.17,0,0,0-.23-.81,18.5,18.5,0,0,1-1.83-.82c.07-.27.15-.54.22-.81a1.47,1.47,0,0,1-.91-.81l-.87-.35a4.23,4.23,0,0,1-1.36-2.44l.21-.7c-.48-.39-.83-1.65-1.06-3.78a15.61,15.61,0,0,1,0-4.48c.09-.15,1.45-1.16,4-3,.06.08.21.12.43.12l.25-.12a6,6,0,0,1,1-.46l.44.11.35-.11.21.11h.34l.61-.35a2.47,2.47,0,0,0,1.21.24c.23-.08.59-.24,1.08-.47a10.31,10.31,0,0,0,3.55-.46,10.19,10.19,0,0,1,2.51,1.51,3.63,3.63,0,0,1,.92-.12,7.82,7.82,0,0,1,3.22,1.28l.82-.23a13.1,13.1,0,0,0,3,2.09c.33.46,2.28,2.64,5.92,6.51A16.49,16.49,0,0,1,80,46.7c-.34.31-.81.81-1.43,1.51l-.3.7.3.34.56.12c1-.31,1.87-.66,2.76-1a6.25,6.25,0,0,1,3,0c0-.31.27-.35.7-.12A22.3,22.3,0,0,1,95.25,46l1.42.7q1.48-1.17,7.44-1.17a14.17,14.17,0,0,0,2-.17,16,16,0,0,1,2-.17,24.11,24.11,0,0,1,3.57.4,23.32,23.32,0,0,0,3.69.41,12.35,12.35,0,0,0,3.09-.76,13.08,13.08,0,0,1,4-.75,20.6,20.6,0,0,1,8.43,2.21q5.34,2.32,6.79,5.23a10.1,10.1,0,0,0-.34,1.74,10.86,10.86,0,0,1,1.11,4.77C138.61,60.07,138.71,61.74,138.77,63.44ZM139,102.5a3.27,3.27,0,0,0-1.16,1.28c-.36.62-.67,1.2-.94,1.74a29.27,29.27,0,0,0-3.3,2.68c-1,.93-2,1.86-2.95,2.79-1.29,1.23-1.88,2.28-1.77,3.13-.08,0-.94.12-2.58.35q-1.71.24-1.89,1c0-.08,0-.16,0-.23l-.24-.12-.11-.12-.13.12-3.4,1.63c-.48-.08-.72-.08-.73,0l-.6-.12a14.81,14.81,0,0,0-1.49.47l-.46-.35-5.84-1.63-.87.23a1.32,1.32,0,0,0-.32-.58l-.34-.23a11,11,0,0,0-1.79-.47l-.37.12-.39.35c0-.19,0-.39,0-.58l-.45-.35-.36-.12-.25.12a.59.59,0,0,0,.2.46l-.5.24-.33-.47h-1.09c-.05-.31-.11-.62-.17-.93l-.23-.11c-.26.19-.52.38-.77.58a1.94,1.94,0,0,1,0-.24.39.39,0,0,1,.27-.34,5.81,5.81,0,0,0-1.77-.59l-.53.47-5.4-2a8.77,8.77,0,0,0-2.75.93c-5.14,5.74-9.07,8.61-11.67,8.61-.71-.24-1.76-.63-3.17-1.17a4,4,0,0,1-.31-2.26,11.8,11.8,0,0,0,0-2l.48-1,.28-.35.5-.12.71.12a63.48,63.48,0,0,1,7.73-5.7L88,107l-.33-.35a15,15,0,0,1-4.84-2.2l-1.11.23c-.23-.08-1.8-.89-4.67-2.44a12.06,12.06,0,0,0-5-1.63,7.37,7.37,0,0,0-5.15,2c-1.44,1.33-2.84,2.6-4.19,3.84-.71.55-1.75,1.44-3.11,2.68a38.84,38.84,0,0,0-2.7,3.25,12.56,12.56,0,0,1-4,2.67,4.57,4.57,0,0,1-3.22-2.32,6.14,6.14,0,0,1-.92-4.07,11.78,11.78,0,0,1,2.42-5.58c1.37-.62,2.73-1.28,4.1-2a5.42,5.42,0,0,0,2.77-2.9,98.34,98.34,0,0,1,10.28-8c5.27-3.75,8.79-6,10.61-6.8q2.07-.57,6.38-2.21a4.53,4.53,0,0,1,4.07,3c1,2.48,1.76,3.82,2.21,4a3.92,3.92,0,0,0,1.52.29,22.26,22.26,0,0,0,4.82-.76,22.66,22.66,0,0,1,4.82-.75,19.24,19.24,0,0,1,8.6,2.21,22.42,22.42,0,0,0,2.46,3.48,26.48,26.48,0,0,1-4.75,4.19c-2,1.63-3.23,3.25-3.52,4.88a30.54,30.54,0,0,0,3.68.47,9,9,0,0,0,1.83-.29,8.34,8.34,0,0,1,1.83-.29,30.52,30.52,0,0,1,3.42.75,21.16,21.16,0,0,1,3.42,1l1.57-.12a14.3,14.3,0,0,0,5.36.82,27.32,27.32,0,0,0,11.45-2.21ZM114.73,18A8.69,8.69,0,0,1,110,19.61c.68-.08-.92-.11-4.79-.12l-5.48,1.17-2.08-.47Q93.61,21.59,89,23.68q-.9,0-5.17,2.09-.64-.22-2-.81c-.16.08-1,.35-2.56.81l-1.77-.23-.91,1-1.1-.23-1.63.47a10.16,10.16,0,0,0-2.32-2.21c1-3.1,4-6.55,8.93-10.35a8.29,8.29,0,0,0,2.48-1.33A6.19,6.19,0,0,1,86.4,11.7L87,11l.08.23.21.12.21.11.35-.11,1-.82c.18-.31.69-.54,1.52-.69A5.61,5.61,0,0,0,93,8.28a5,5,0,0,1,2.19-1.46l2.64.12c.69.46,2.14.74,4.34.81a43.12,43.12,0,0,1,5.1.47,4.12,4.12,0,0,1,2,1.28,22.2,22.2,0,0,0,2,1.62c.85.39,2.06,1,3.62,1.86-.23.89-.45,1.79-.67,2.68ZM95.19,35.07l-1.33,2c0,.46-.1.93-.14,1.39a17,17,0,0,0-2.42.88,8.29,8.29,0,0,1-2.75.75c-.61,0-1.37-.6-2.26-1.8a7,7,0,0,0-3.53-2.5A7.2,7.2,0,0,0,81.25,31l.48-1.28c0-.69-.07-1.39-.11-2.09a28.45,28.45,0,0,1,5.45-.35q2.36,0,4.84,3.26C93,32,94.06,33.52,95.19,35.07Zm16.3,42.32-.75,2a58.32,58.32,0,0,1-7.33,2.27,36.44,36.44,0,0,1-7.17,1.45,6.44,6.44,0,0,1-3.31-1.16,6.44,6.44,0,0,0-3-1.16,31.28,31.28,0,0,1-5.33-5.46,58.9,58.9,0,0,1-3.28-6.63c-1.39-2.94-2-4.84-1.94-5.7a2.44,2.44,0,0,1,.48-1.16,7.94,7.94,0,0,0,1.59-1.28c.73-.69,1.25-1,1.56-1a3,3,0,0,1,1.64.92A7.81,7.81,0,0,0,86,60.3h1.28c1.78,0,3.47,1.59,5.09,4.77.15,4,1.9,6.82,5.28,8.37a10.83,10.83,0,0,0,3.76,1.16l2.73-.35a5.73,5.73,0,0,1,4.22.81C109.4,75.84,110.45,76.61,111.49,77.39ZM97.8,94.48a7.15,7.15,0,0,0-3.6-1H92.65c-2.62,0-4.13.31-4.51.93a17.79,17.79,0,0,1,4.14,2.91,5.84,5.84,0,0,1,1.76.4,5.76,5.76,0,0,0,1.88.41,21.66,21.66,0,0,0,1.45-2.79A1.21,1.21,0,0,1,97.8,94.48Zm23.37-65.8q-.33,4.41-4.81,8a69.81,69.81,0,0,0-6.87,6,7.86,7.86,0,0,0-1.62.3,8.27,8.27,0,0,1-1.74.29,4.7,4.7,0,0,1-2.81-1.11,2,2,0,0,1-1-2.38l-.18-.47,0-.35a24.36,24.36,0,0,1,1.4-2.9V36l-.21-.11c.72-2.17,1.64-3.53,2.74-4.07a5,5,0,0,1,1.08-2,7,7,0,0,0,1.21-2.21c2.83-2.4,5.17-3.6,7-3.6a6.92,6.92,0,0,1,3.88,1.33A3.57,3.57,0,0,1,121.17,28.68Z"/><path class="cls-3" d="M250.87,67.39a10.24,10.24,0,0,0-.76,4.42c0,3-.05,4.57,0,4.65l-.71.11-.22.24a9.56,9.56,0,0,1-1.82,4.76c-.2,1-.51,2.4-.91,4.19a27.34,27.34,0,0,0-1.9,3.49c-.13.69-.38,1.7-.73,3,0-.16,0-.31,0-.47a4.73,4.73,0,0,0-.46.7c0,.51,0,1-.07,1.51l-.71.24q-.33.47-2.34,5.34c.41-2.48,1-4,1.77-4.53a61.8,61.8,0,0,0,2.15-17.56c-.33-.3-.73-1.6-1.2-3.89a20.87,20.87,0,0,1-.61-4.36l.22-.35a21.93,21.93,0,0,0-2.82-4.3c0-1.86-1.29-4.11-3.68-6.74l-1,.23c.24.31.63.78,1.19,1.4,0,.15-.07.31-.1.46l-.13-.46a4.76,4.76,0,0,1-.95-1.05c0-.2,0-.39,0-.58-.33-.78-.78-1.71-1.34-2.79a2.18,2.18,0,0,1-1.4-.58,16.93,16.93,0,0,1-1.3-1.17l-2.44-1h-1.61a2.85,2.85,0,0,0-1.4-1.05l-1.74-.7-.47-.58-.91.47a49.22,49.22,0,0,1-4.62-1.75,2.3,2.3,0,0,1-1,.24,4.48,4.48,0,0,1-1-.18,4.19,4.19,0,0,0-1-.17h-.69l-.34.35-.58-.35a23.79,23.79,0,0,1-2.29.69l-.12-.46v-.12l-.11.12-1.37,2v.46a11.94,11.94,0,0,1,.82,1.86c-.08.27-.15.54-.23.81a4.58,4.58,0,0,1,.53,2.27,5,5,0,0,0,.42,2.15,5.29,5.29,0,0,0-.57,2.56c0,.89,0,1.78,0,2.67-.46.93-1,2.18-1.73,3.72a9.06,9.06,0,0,1-.69,3.26c-.39,1.08-.78,2.21-1.17,3.37-.15.54-.42,1.9-.81,4.07a22,22,0,0,1-.94,2.67c-.24.55-.88,2.81-2,6.8s-1.66,6.3-1.74,6.92l.36,1.63-.36.23q-.24.59-.72,1.8c-.33.82-.75,2-1.28,3.61s-1,3.12-1.53,4.59a10,10,0,0,1-2.68,4.07c-.32-.08-1.08-.86-2.28-2.33a9.3,9.3,0,0,1-3.37-.93,37,37,0,0,1-3.09-3.31,17.89,17.89,0,0,1-2.7-3.55c-.16-.46-.38-1.24-.68-2.32l-3.63-3.72a15,15,0,0,0-4.11-2.91l-.72.12q-4.05,0-9.61-4.42a2.73,2.73,0,0,0-1.95-2,10.83,10.83,0,0,0-1.59-3.42A14.42,14.42,0,0,1,159.39,77c.09-.19.17-.39.26-.58-.07-1.32-.13-2.64-.2-3.95.1-2.41.31-3.8.63-4.19a4,4,0,0,1-.38-2.09c0-.58,0-1.16.07-1.75a13.29,13.29,0,0,0,2-3.25,5,5,0,0,1,2.07-2.56c-.07-.31-.14-.62-.2-.93.3-1.94.91-3,1.84-3.14.12-.23.25-.46.37-.7.06.62.11,1.25.17,1.87,0-.12-.07-.24-.11-.35l-.22-.12-.24.12c-.17.54-.87,2.87-2.1,7a2.89,2.89,0,0,0,.2,1,5.63,5.63,0,0,0-.16,1,3.94,3.94,0,0,0,.51,2.21l-.92-.46c-.21.54-.43,1.08-.64,1.63l.57.46,1.55-1c0-.46-.05-.93-.07-1.39.18-5.12,2.78-11.51,7.66-19.18a4.05,4.05,0,0,0-.14.81,2.94,2.94,0,0,0,.09.82c1.21-1.94,2.2-3.41,3-4.42a39,39,0,0,1,3.45-3.55,17.28,17.28,0,0,1,3.36-2.85,6,6,0,0,1,1.31-.11l1.28-1.51,1-.59.45-.11.33.7c.08-.24.2-.54.36-.93l.46-.47a14.44,14.44,0,0,0,1.81-.35,5,5,0,0,0,1.61-1.28,17.62,17.62,0,0,0,3.29-1.16l.56.35a1.31,1.31,0,0,1,.57-.64q.45-.29,1.47-.87l.34.11,4.18-1.16.34-.35a2.45,2.45,0,0,1,1.24.12,2.56,2.56,0,0,1,1.81-.93,2,2,0,0,1,.9.23,1.55,1.55,0,0,1,.56-.7H206c-.08,0,.07,0,.45.12a2.19,2.19,0,0,0,1.46.58h.23a1.8,1.8,0,0,1,.45-.7l.45.24,2.14-.24c.37.24.75.47,1.13.7l.56-.46,1.92.93a4.77,4.77,0,0,0,.9-.35l.34.23a3.38,3.38,0,0,1,2.15.7l1.24-.12c.91.31,2.42.86,4.54,1.63,2.44,1.7,5.23,3.53,8.38,5.46l.68.12c.19,1.32,1.34,1.94,3.46,1.86.29.58.57,1.16.85,1.74A6.87,6.87,0,0,1,241.57,44l.71.47v.23c.72.93,1.48,1.82,2.27,2.68a4.58,4.58,0,0,1,1.49,3l1.07.93-.22.23.13.35a2,2,0,0,0,.59.58,2.26,2.26,0,0,0,.28,1.22c.16.19.53.72,1.1,1.57a21.91,21.91,0,0,1,1.1,4.42,34.87,34.87,0,0,0,.65,4.53c-.09.51-.19,1-.29,1.51ZM169.09,49.25a10.49,10.49,0,0,1-.91,1.52,3.93,3.93,0,0,0-.81,1.74,1.4,1.4,0,0,0,.1.58c-.55.31-.94.43-1.16.35l-.11-.23c0-.2,0-.39,0-.58l-.11-.24h-.23a3.34,3.34,0,0,1,1.22-2.09c1.18-.93,1.81-1.43,1.89-1.51A2,2,0,0,1,169.09,49.25Zm.85-1.51a4.34,4.34,0,0,1-.59.47l.47-.47Zm31.16,4.54-.22-.23a1,1,0,0,0-.46-.12l-.12.12a5.31,5.31,0,0,0-3,.69c-.7.47-1.39,1-2.09,1.51q-1,.12-3.83,2.44a21.41,21.41,0,0,0-3.52,3.38q-.7,1-2.13,2.79A45.88,45.88,0,0,0,181.26,66q-.12.1-2.41,3.6l-.47.23a12.78,12.78,0,0,0-.42,2.91,7,7,0,0,0,1.42,4.76c0,.2,0,.39,0,.59l.92.81c0,.12,0,.23,0,.35,2.39,6.35,5,9.88,7.87,10.58l1.8-1.4q.75-2.55,2.1-7.67c0-.23-.07-.47-.11-.7q1.74-7.2,2.69-10.93A64.54,64.54,0,0,1,198,59a12,12,0,0,0,.93-1.63,16.73,16.73,0,0,0,.48-2.32A7.31,7.31,0,0,1,201.1,52.28Z"/><path class="cls-3" d="M376.42,101l-1.53,1c0,.2.05.39.08.58a7.83,7.83,0,0,0,1.41,1.4c-.38.7-1,1.78-1.94,3.26a26.17,26.17,0,0,1-3.18.11c-1.74,0-2.47,0-2.22.12l-2.58.58a2.19,2.19,0,0,0-1.63-.47L363,107.5l-.54.46a3.12,3.12,0,0,0-2.18-.93,8.2,8.2,0,0,1-2.49-.58,57.32,57.32,0,0,1-6,.12c-1.59.23-3.24.54-5,.93l-1.58-.12c.08,0-.55.16-1.88.47-1.37,0-3.33.11-5.88.35a127.59,127.59,0,0,0-14,2.67c-7.58,1.7-11.76,2.95-12.5,3.72l-1-.23-4.28,1.16a10,10,0,0,1-2.77-1.16l-.59.11a13.59,13.59,0,0,1-2.83-1.86c-1.38-1.16-2.25-1.86-2.59-2.09a17.56,17.56,0,0,1-2.26-1.16c-.1-.16-.06-.23.1-.23l-.15-.35h-.85a52.26,52.26,0,0,0-3.1-4.42,9,9,0,0,1-2.26-4.65l.33-2.09c-.15-.39-.3-.78-.44-1.17.34-.77,1.47-1.16,3.38-1.16a38.35,38.35,0,0,1,8.14,1.63l0,.35h.35a6,6,0,0,1,3,1.51,14.32,14.32,0,0,0,2.6,1.74,66.84,66.84,0,0,0,7.18,2.33l1.89-.35,1.37.46c.23-.07,1.91-.15,5-.23.79-.08,1.43-.15,1.9-.23l1.72.35.68-.35h.85l.78-.58.75.35,1.64-.47h1.56a1,1,0,0,1,.37.12,1,1,0,0,0,.38.11l-.09-.81a24.53,24.53,0,0,1-1.21-2.33A25.16,25.16,0,0,0,330,96.1a3.72,3.72,0,0,1,.38-2l.44-.35c-1.31-.31-2-.46-2.08-.46l-.09.23a26.15,26.15,0,0,0-4.07-1.28,1.53,1.53,0,0,0-1.15.46,62.49,62.49,0,0,1-5.82-4.65c-.1-.19-.19-.38-.29-.58-2.44-.7-5.29-2.75-8.51-6.16,1-2.4,3.45-3.84,7.49-4.3l.5.35c.76-.31,1.57-.6,2.44-.87a4,4,0,0,1,2.41-.06l.56-.23,1.44.23,2.42-.47a18.18,18.18,0,0,1,4.2.82c.11-.47.26-1.21.46-2.21l.32-.35c-.06-.16-.12-.31-.17-.47a.83.83,0,0,1-.51-.34c.06-.16.25-.54.57-1.17a9.83,9.83,0,0,0-.61-1.28l0-.34h-2.46a36.1,36.1,0,0,0-5.53.81q-4.49.81-4.79,1.28A37,37,0,0,0,313,71.46a8.58,8.58,0,0,1-4.3-2.21,8,8,0,0,1-3.32-1.86,9.33,9.33,0,0,0-2.48-1.74,10.23,10.23,0,0,0-4.47-4.77l-.18-.7c-.79-1.16-1.66-2.44-2.63-3.83a5.41,5.41,0,0,1-1-1.05c0-.31-.05-.62-.08-.93a6.44,6.44,0,0,1-1.44-2.27c-.56-1.2-1-1.84-1.42-1.92l-.28-.69A2.59,2.59,0,0,1,290.09,48a2.16,2.16,0,0,1,.13-1.28L288.6,45c0-.31,0-.62,0-.93l-1.09-.81.28-.81a2.88,2.88,0,0,1-.93-.24l-.29-.81.09-.35a2,2,0,0,0,.53-.58,24.58,24.58,0,0,0-1.84-3.26c.24-1.93.38-2.63.42-2.09q-.76-2.55-1.35-4.53l-.48-.35c.14-.62.29-1.24.43-1.86-.14-.35-.28-.7-.41-1,.43-.23.89-1,1.39-2.44a2.32,2.32,0,0,1,2.24-1.51l.72-.81.22-.12a1.67,1.67,0,0,1,.52-.58,1.41,1.41,0,0,0,.66-.12c.16.23.37.51.62.82l0-.35c0-.08.07-.16.1-.23h.22l.37.34c-.16.43-.31.86-.46,1.28l2.29.58.7-1a3,3,0,0,1,2.83,1.74l1.57-.11a17,17,0,0,0,1.35,1.39l.7.23a4.22,4.22,0,0,0,1.16,1.75l.63-.58a14.42,14.42,0,0,0,3.46,2.2c2.13,1,3.39,1.63,3.79,1.86a49.84,49.84,0,0,0,4.05,3.26,2.7,2.7,0,0,0,.17.58c0,.12,0,.23-.08.35l1.42,1.74a43.78,43.78,0,0,1,7.85-.93,12.7,12.7,0,0,0,3.67-.69,8.74,8.74,0,0,0-1.27-2.33l0-.35Q327,30,330.11,30a1.12,1.12,0,0,1,.55-.12,5.4,5.4,0,0,1,1.17.35c.12-.23.26-.35.41-.35s.65.12,1.74.35a6,6,0,0,1,.75,2.56,7.15,7.15,0,0,1-.1,3c.15-.08.29,0,.43.23a1,1,0,0,0,.89.35l.24.12c.26.23.64.62,1.16,1.16,0,.08.08.31.2.7l.25.23a1.85,1.85,0,0,1,.76.58,5.15,5.15,0,0,1,.09,1.74l.26.24.74.46c.09.16.19.35.3.58-.74.86-1.79,2.18-3.18,4a3.4,3.4,0,0,0-3.26,2.55,14.54,14.54,0,0,0,.07,4.54,23.87,23.87,0,0,1,0,4.18c.31.62.61,1.24.91,1.86,3.46-.77,5-2.48,4.72-5.11a5.56,5.56,0,0,0-.39-1.28,5.44,5.44,0,0,1-.38-1.28l.09-.23.1-.12.36.12,4,2.79c-.2-12.87-.55-21-1-24.3a11.25,11.25,0,0,0-1.92-4.53,9.2,9.2,0,0,0-3.66-.58,17.37,17.37,0,0,1-3.62-.24,39.46,39.46,0,0,1-6.15-2.79A33,33,0,0,1,321,18.33c.93-.73,1.85-1.47,2.77-2.21.44-.07,1.15-.25,2.12-.52a9.26,9.26,0,0,1,2.34-.41q3.42.71,8.22,1.63a7.42,7.42,0,0,1,5.24-1.74,34.82,34.82,0,0,1,5.49,1.16,2.87,2.87,0,0,1,1.6,1.16l.32-.11,1.29.46a7.71,7.71,0,0,1,2,.93l.55-.12.27.35a15.51,15.51,0,0,1,4.91,4.77l.39.35A2.55,2.55,0,0,1,360,25.19c-.28.7-.73,1.75-1.36,3.14-.07,1.08-.15,2.4-.24,4,.07.23.14.47.22.7-.06,1-.11,1.94-.17,2.91.21.38.41.77.62,1.16a10.49,10.49,0,0,0-.51,3.66,11.88,11.88,0,0,1-.34,3.31,9,9,0,0,1-1.1,2,11.79,11.79,0,0,0-1.21,4.59,19.29,19.29,0,0,0-.14,4.88c-.37.74-.73,1.48-1.1,2.21a13.36,13.36,0,0,1-.28,3.95,27.39,27.39,0,0,0-.4,4.07h-1c-.23.08-.46.93-.72,2.56l-1.14.23c-2.33,0-3.35,0-3.05-.11a7.13,7.13,0,0,1-3.48-2.68,19.37,19.37,0,0,0-2.51-3.37c.05-.27.09-.54.14-.81l-.48-1a13.88,13.88,0,0,0-2.88,4.07,5.08,5.08,0,0,0-1.26.12c-.53.15-1,1-1.53,2.38a8.1,8.1,0,0,0-.63,3.2c0,.07.32,1.74.93,5,.41.15,1.06.39,2,.69a6.34,6.34,0,0,1,2.16-.58,3.11,3.11,0,0,1,.87.35,3,3,0,0,1,1.15-.23,5.65,5.65,0,0,1,2.17.46,28.9,28.9,0,0,0,6.11,2.79,5,5,0,0,1,2,1.4h-.36a.9.9,0,0,1-.21.58,1.19,1.19,0,0,1-.6.46l-.2.24c0,.11,0,.23,0,.35l1.39,1.62c-.14.16-.87.91-2.19,2.27a19,19,0,0,1-2.12,2c-1,.31-2.4.78-4.23,1.4-4.3,1.16-6.35,2.6-6.16,4.3.06.54.27,1.71.64,3.49a11,11,0,0,1,.52,3.49l.39.23a11.41,11.41,0,0,0,2.19.23A15.71,15.71,0,0,0,348,99.71a.42.42,0,0,0-.08.35l.16.35a1.93,1.93,0,0,0,.8.58,13.56,13.56,0,0,0,2.21-.58c.09-.2.19-.39.28-.59,0,0,0,.08,0,.12s.1.23.16.35l.27.23.34-.11a1.46,1.46,0,0,1,1.07-1c.94-.15,1.45-.23,1.53-.23a26.56,26.56,0,0,1,5.63-1.86l.63.23,1.59-.58a53.11,53.11,0,0,1,9.81,1.63l.43,1.27.94-.11h.48C375,100.1,375.71,100.52,376.42,101ZM329.19,60.41q-1.32-11.85-2.34-13.95c-.09-.07-1.64-.5-4.66-1.27S317.55,44,317.32,44c0,.31.07.62.1.93l.49.35a13.56,13.56,0,0,0,.74,2.79,11.43,11.43,0,0,1-.48,2,7.2,7.2,0,0,0-.08,2.67,5.32,5.32,0,0,1-.28,1.8,5.67,5.67,0,0,0-.28,1.81c.1.23.51,1.55,1.21,3.95a4.9,4.9,0,0,0,2.54,3.25h.58A9.88,9.88,0,0,0,329.19,60.41Zm28.67-9.06-.1.11-.22.12c0-.12,0-.23.07-.35a.26.26,0,0,1,.22-.11Z"/></g></g></svg>