<svg xmlns="http://www.w3.org/2000/svg" xmlns:xlink="http://www.w3.org/1999/xlink" width="1052.47" height="124.29" viewBox="0 0 1052.47 124.29"><defs><style>.cls-1{fill:none;stroke:#221613;stroke-linecap:round;stroke-linejoin:round;stroke-width:13.34px;}.cls-2{fill:url(#linear-gradient);}.cls-3{fill:#231815;}</style><linearGradient id="linear-gradient" x1="172.15" y1="3.32" x2="172.15" y2="132.61" gradientUnits="userSpaceOnUse"><stop offset="0.01" stop-color="#fff"/><stop offset="0.45" stop-color="#f4e727"/><stop offset="0.82" stop-color="#e17024"/><stop offset="1" stop-color="#d93923"/></linearGradient></defs><title>campaign</title><g id="レイヤー_2" data-name="レイヤー 2"><g id="デザイン"><path class="cls-1" d="M22.64,79.2a4,4,0,0,0-1.08,1.59,3.43,3.43,0,0,1-1.44,1.71c.06.11.13.22.19.34s-.13.38-.19.56L17,84.09a7.43,7.43,0,0,1-3.84-2.39A30.12,30.12,0,0,1,8.37,72,27.15,27.15,0,0,1,6.78,61.35a2,2,0,0,1-.09-.91c.08-.53.67-1,1.79-1.36a2.49,2.49,0,0,1-.08-1,21.22,21.22,0,0,1,2.32-2.72,23.1,23.1,0,0,1,8.22-1.48,7.66,7.66,0,0,0,2-.34l.48.57.05.45c-.05.15-.11.3-.17.46l.31.22a10.2,10.2,0,0,0,.05,2.16q-2.26,1.71-2.95,6.71a11,11,0,0,0,.23,4.21l-.61.34C21.24,72.19,22.7,75.71,22.64,79.2ZM105.23,62c-.1.42-.2.84-.29,1.25a9.29,9.29,0,0,0-1.75.69,1.93,1.93,0,0,0-1,1.47l-.58.12-.56-.23-.49.57.78.34-1.62.34-.26.46a18.53,18.53,0,0,1-4.24-3.93c-1.66-1.93-2.59-3-2.8-3.12l-.12.11a2.47,2.47,0,0,0-.15.46l.45,1.7c-.68,2.12-2.54,3.19-5.58,3.18a6.94,6.94,0,0,1-3.34-1,3.41,3.41,0,0,1-2-2.45,2.8,2.8,0,0,0-2.08-1c-3.85,1.74-6.51,2.62-7.95,2.62a9.28,9.28,0,0,1-4.77-1.43,7.9,7.9,0,0,1-3.3-3.46,3.09,3.09,0,0,1,2.6-1.14,10.4,10.4,0,0,0,2.87-.46,11.43,11.43,0,0,1,3.64,1,13.86,13.86,0,0,0,1.33,1.7,2.17,2.17,0,0,0,2,.91,13.69,13.69,0,0,0,3.55-1.7,19.25,19.25,0,0,1,4-1.94,41.51,41.51,0,0,1,7.75,2.51L92.38,59a18.13,18.13,0,0,0-1.25-4.77,5.59,5.59,0,0,0-3.75-2.73,12.53,12.53,0,0,1-3.21-.68l-1,.34Q79,50.55,70.69,49.3l-1.87.8-.6-.8-1,.8-.91-1-.24.12-.32-.12a1.81,1.81,0,0,0-.91.12,6.89,6.89,0,0,1-2,1l-.25.23-.43-.23-2.4.46-.71-.8a7.47,7.47,0,0,1-1.62.45c-.09.12-.18.23-.26.35h-.34l-.25.22c.07.08.14.15.2.23,0-.23-.13-.15-.47.23,0,.11,0,.22,0,.34l-.39-.57-.7.23-.65-.23H54.2l-.13.23c0,.19,0,.38,0,.57a3.75,3.75,0,0,0-1-.12,1.32,1.32,0,0,0-.51.57l-1.07-.57a39.3,39.3,0,0,0-3.6,2.05l-.74-.46a21.91,21.91,0,0,1-4.39,2.39,14.13,14.13,0,0,0-4.32,2.62l.32.11.47-.11a15.82,15.82,0,0,0,3.26,1.25h-.12l-.14.22.08.34.07.35.14-.23.24-.12h.34l.19.35c.37.75.88,1.93,1.53,3.52a9,9,0,0,0,1.33,4.55c-.14.83-.27,1.66-.4,2.5l.24,2a32.3,32.3,0,0,1-2.71,2.62l-1-.11-3.94,1.25a3.26,3.26,0,0,1-2.47-1c-.65-.68-1.28-1.36-1.88-2a17.5,17.5,0,0,1-2.44-1.71,6.2,6.2,0,0,1-2-2.84,8.51,8.51,0,0,1-.87-3.53l-.3-.34L29,63.85l-.37-.68,1-1.82-.27-.57a4.07,4.07,0,0,1,2.82-1.7l.06-.46a4,4,0,0,0-1.65-.45,7.18,7.18,0,0,0-2.45.62,13.62,13.62,0,0,1-2.14.74,4.21,4.21,0,0,1-2.26-.91,13.53,13.53,0,0,1,6.86-5,65.63,65.63,0,0,0,7.24-2.95,14.61,14.61,0,0,0-4.61-1.82l-1.4.34a4.56,4.56,0,0,0-2.7-.8,6.29,6.29,0,0,0-2.31.46l-.27-.46L26,48.16a6.29,6.29,0,0,0-1.13.12.86.86,0,0,0-.7-.68,2.53,2.53,0,0,0-1.12,0,2.25,2.25,0,0,1-1,0h-.67l-.63-1.14H20a5.08,5.08,0,0,0-.23-.8,18,18,0,0,1-1.79-.79c.07-.27.15-.53.22-.8a1.46,1.46,0,0,1-.89-.79c-.22-.08-.5-.19-.85-.35a4.12,4.12,0,0,1-1.34-2.38l.21-.68c-.47-.38-.81-1.61-1-3.7a15.4,15.4,0,0,1,0-4.38q.15-.22,4-2.95c.06.08.2.11.42.11l.24-.11a6,6,0,0,1,.94-.46l.43.12.35-.12.2.12h.33l.6-.34a2.48,2.48,0,0,0,1.18.22,8,8,0,0,0,1.05-.45,9.9,9.9,0,0,0,3.48-.46A10.21,10.21,0,0,1,29.84,29a4,4,0,0,1,.9-.11,7.6,7.6,0,0,1,3.15,1.25l.8-.23a12.7,12.7,0,0,0,3,2.05c.32.45,2.22,2.57,5.79,6.36a16.29,16.29,0,0,1,4.29,7.39c-.33.31-.8.8-1.4,1.48l-.3.68.3.34.55.12a27.71,27.71,0,0,0,2.69-1,6.26,6.26,0,0,1,2.92,0c0-.31.26-.34.68-.12A21.8,21.8,0,0,1,62.68,45l1.39.68q1.46-1.12,7.27-1.13a17.1,17.1,0,0,0,2-.17,15.35,15.35,0,0,1,2-.17,24.23,24.23,0,0,1,3.49.39,23.12,23.12,0,0,0,3.6.4,12.34,12.34,0,0,0,3-.74,12.89,12.89,0,0,1,3.92-.74,20.12,20.12,0,0,1,8.24,2.16c3.48,1.52,5.7,3.23,6.64,5.12a10.14,10.14,0,0,0-.33,1.7A10.76,10.76,0,0,1,105,57.14C105.08,58.74,105.18,60.37,105.23,62Zm.27,38.2a3.11,3.11,0,0,0-1.13,1.25c-.35.61-.66,1.18-.92,1.7a28.37,28.37,0,0,0-3.23,2.62q-1.5,1.36-2.88,2.73c-1.26,1.21-1.84,2.23-1.74,3.07-.08,0-.92.11-2.51.34q-1.68.23-1.86,1l0-.23-.23-.11-.11-.11-.13.11-3.32,1.59c-.47-.07-.71-.07-.71,0l-.59-.11a13.54,13.54,0,0,0-1.46.45l-.45-.34-5.71-1.59-.85.23a1.22,1.22,0,0,0-.31-.57l-.34-.23a10.77,10.77,0,0,0-1.74-.45l-.37.11-.38.34c0-.19,0-.38,0-.57-.15-.11-.3-.22-.44-.34L73.8,111l-.25.11a.65.65,0,0,0,.2.46l-.49.22-.32-.45H71.87c-.05-.3-.11-.61-.16-.91l-.23-.11-.76.57a2,2,0,0,0,0-.23.39.39,0,0,1,.27-.34,5.42,5.42,0,0,0-1.73-.57l-.52.45-5.27-1.93a8.24,8.24,0,0,0-2.69.91c-5,5.61-8.87,8.41-11.42,8.41-.69-.22-1.72-.6-3.1-1.13a4,4,0,0,1-.3-2.22,11.23,11.23,0,0,0,0-2l.47-1,.27-.34.49-.12.7.12a61.4,61.4,0,0,1,7.55-5.58l.07-.68c-.11-.11-.22-.22-.32-.34a14.62,14.62,0,0,1-4.74-2.16l-1.08.23c-.23-.08-1.76-.87-4.57-2.39A11.83,11.83,0,0,0,40,98.41a7.21,7.21,0,0,0-5,1.93l-4.09,3.75c-.7.54-1.71,1.41-3,2.62a37.88,37.88,0,0,0-2.64,3.18,12.39,12.39,0,0,1-3.89,2.62,4.5,4.5,0,0,1-3.15-2.28,6,6,0,0,1-.9-4,11.39,11.39,0,0,1,2.37-5.45c1.33-.61,2.67-1.25,4-1.93A5.3,5.3,0,0,0,26.3,96a97.26,97.26,0,0,1,10.05-7.78c5.16-3.68,8.6-5.9,10.38-6.65q2-.57,6.24-2.16a4.41,4.41,0,0,1,4,2.95c1,2.43,1.72,3.73,2.16,3.92a3.76,3.76,0,0,0,1.48.29,22.26,22.26,0,0,0,4.72-.74A22.28,22.28,0,0,1,70,85.11a18.86,18.86,0,0,1,8.41,2.16,21.93,21.93,0,0,0,2.41,3.41,26.1,26.1,0,0,1-4.65,4.09c-2,1.59-3.15,3.19-3.44,4.78a30,30,0,0,0,3.6.45,8.54,8.54,0,0,0,1.79-.28,9.37,9.37,0,0,1,1.79-.29c.23,0,1.34.25,3.35.74a21.79,21.79,0,0,1,3.34,1l1.54-.11a14.12,14.12,0,0,0,5.24.79,26.69,26.69,0,0,0,11.19-2.16ZM81.72,17.58a8.45,8.45,0,0,1-4.61,1.6c.67-.08-.9-.12-4.69-.12L67.07,20.2l-2-.46q-4,1.36-8.45,3.41c-.59,0-2.27.69-5.05,2.05-.43-.15-1.09-.41-2-.79-.16.07-1,.34-2.51.79L45.3,25l-.89,1-1.07-.23-1.6.45a10,10,0,0,0-2.26-2.16c1-3,4-6.4,8.73-10.11a8.26,8.26,0,0,0,2.42-1.31A6.07,6.07,0,0,1,54,11.45l.62-.69.08.23.21.11.2.12.34-.12,1-.79c.18-.3.67-.53,1.48-.68a5.44,5.44,0,0,0,2.6-1.54,4.92,4.92,0,0,1,2.14-1.42l2.58.12a9.25,9.25,0,0,0,4.25.79,39.66,39.66,0,0,1,5,.46,4,4,0,0,1,2,1.25,24.41,24.41,0,0,0,1.92,1.59c.84.38,2,1,3.54,1.82-.22.87-.43,1.74-.65,2.61C81.41,16.07,81.57,16.83,81.72,17.58ZM62.62,34.3c-.43.64-.87,1.28-1.3,1.93,0,.45-.09.91-.14,1.36a17.51,17.51,0,0,0-2.36.85,7.9,7.9,0,0,1-2.7.74c-.59,0-1.33-.58-2.2-1.76A6.77,6.77,0,0,0,50.46,35,7,7,0,0,0,49,30.32c.15-.42.31-.84.47-1.25,0-.69-.07-1.37-.1-2.05a27.22,27.22,0,0,1,5.32-.34c1.54,0,3.11,1.06,4.73,3.18Q61,32,62.62,34.3ZM78.56,75.68c-.25.64-.49,1.28-.74,1.93a56.38,56.38,0,0,1-7.16,2.21,36.79,36.79,0,0,1-7,1.43,6.53,6.53,0,0,1-3.24-1.14A6.24,6.24,0,0,0,57.52,79a30.72,30.72,0,0,1-5.22-5.34,58.23,58.23,0,0,1-3.2-6.48c-1.37-2.88-2-4.74-1.9-5.57a2.42,2.42,0,0,1,.47-1.14,8,8,0,0,0,1.55-1.25c.72-.68,1.22-1,1.53-1a2.94,2.94,0,0,1,1.6.91A9.2,9.2,0,0,0,53.61,59h1.25c1.73,0,3.39,1.56,5,4.67q.21,5.91,5.15,8.18A10.53,10.53,0,0,0,68.68,73l2.67-.34a5.58,5.58,0,0,1,4.12.79ZM65.18,92.39a7.07,7.07,0,0,0-3.53-1H60.14c-2.57,0-4,.31-4.41.91a18.21,18.21,0,0,1,4.05,2.84,6.34,6.34,0,0,1,1.72.4,5.73,5.73,0,0,0,1.83.4,19.6,19.6,0,0,0,1.42-2.73A1.17,1.17,0,0,1,65.18,92.39ZM88,28q-.33,4.32-4.7,7.85a66.89,66.89,0,0,0-6.72,5.91,8.48,8.48,0,0,0-1.59.28,7.9,7.9,0,0,1-1.7.29,4.56,4.56,0,0,1-2.75-1.08A2,2,0,0,1,69.62,39l-.19-.46c0-.11,0-.23,0-.34a21.86,21.86,0,0,1,1.37-2.84v-.11l-.21-.12q1.06-3.18,2.68-4a4.91,4.91,0,0,1,1.05-1.93A6.56,6.56,0,0,0,75.55,27c2.78-2.35,5.07-3.52,6.9-3.52a6.76,6.76,0,0,1,3.79,1.3A3.51,3.51,0,0,1,88,28Z"/><path class="cls-1" d="M214.85,65.9a9.83,9.83,0,0,0-.73,4.32c0,3-.05,4.47-.05,4.54l-.69.12-.22.23a9.37,9.37,0,0,1-1.78,4.66c-.19,1-.49,2.35-.89,4.09a27,27,0,0,0-1.85,3.41c-.14.68-.37,1.67-.72,3,0-.16,0-.31,0-.46a4.14,4.14,0,0,0-.45.68l-.06,1.48-.7.23a56.56,56.56,0,0,0-2.29,5.23c.4-2.43,1-3.91,1.74-4.44a60.32,60.32,0,0,0,2.09-17.16c-.32-.3-.71-1.58-1.17-3.81a21.11,21.11,0,0,1-.6-4.26l.22-.34a20.46,20.46,0,0,0-2.76-4.21c-.05-1.82-1.26-4-3.6-6.59l-1,.22c.24.31.63.76,1.17,1.37l-.1.45-.12-.45a4.38,4.38,0,0,1-.94-1c0-.18,0-.37,0-.56q-.49-1.14-1.32-2.73a2.17,2.17,0,0,1-1.37-.57q-.69-.57-1.26-1.14l-2.39-1H191.4a2.74,2.74,0,0,0-1.37-1l-1.7-.68-.45-.57-.9.45c-.82-.23-2.33-.8-4.51-1.7a2.23,2.23,0,0,1-1,.22,3.59,3.59,0,0,1-1-.17,4.12,4.12,0,0,0-1-.17h-.67c-.11.12-.22.23-.34.34l-.56-.34c-.15.08-.89.3-2.24.68,0-.15-.08-.3-.11-.45V47.6l-.12.11-1.33,1.93v.46a11.62,11.62,0,0,1,.79,1.82c-.07.26-.14.53-.22.79a4.37,4.37,0,0,1,.52,2.22,4.79,4.79,0,0,0,.41,2.1,5.08,5.08,0,0,0-.55,2.5c0,.87,0,1.75,0,2.62-.45.91-1,2.12-1.69,3.63a9,9,0,0,1-.68,3.19c-.38,1.06-.75,2.16-1.13,3.29-.16.53-.42,1.86-.8,4a22.18,22.18,0,0,1-.92,2.62c-.23.53-.86,2.74-1.91,6.65s-1.63,6.16-1.7,6.76c.11.53.23,1.06.34,1.59l-.35.23c-.16.38-.39,1-.71,1.76s-.73,2-1.24,3.53-1,3.05-1.49,4.49a9.85,9.85,0,0,1-2.63,4c-.32-.08-1.06-.84-2.23-2.28a9,9,0,0,1-3.29-.91,34,34,0,0,1-3-3.24A17.74,17.74,0,0,1,149,98q-.22-.69-.66-2.28c-2.15-2.19-3.32-3.41-3.55-3.64a14.61,14.61,0,0,0-4-2.84l-.7.12c-2.64,0-5.79-1.44-9.4-4.32a2.67,2.67,0,0,0-1.9-1.94,10.67,10.67,0,0,0-1.56-3.35,14.17,14.17,0,0,1-1.85-4.38c.09-.19.17-.38.25-.57-.06-1.28-.13-2.57-.19-3.86.09-2.35.3-3.71.62-4.09a3.94,3.94,0,0,1-.38-2c0-.57,0-1.14.07-1.7a13.32,13.32,0,0,0,1.94-3.19,5,5,0,0,1,2-2.5c-.07-.3-.13-.6-.2-.91.3-1.89.9-2.91,1.8-3.07.13-.22.25-.45.37-.68.05.61.11,1.21.16,1.82l-.1-.34-.22-.11-.23.11q-.26.8-2.05,6.82a2.53,2.53,0,0,0,.19,1,5.3,5.3,0,0,0-.16,1,3.89,3.89,0,0,0,.5,2.16l-.9-.46-.63,1.59.56.46,1.52-1c0-.45-.05-.91-.07-1.36.18-5,2.72-11.25,7.49-18.76a3.3,3.3,0,0,0-.13.8,2.48,2.48,0,0,0,.09.8,50.68,50.68,0,0,1,2.91-4.33A41.55,41.55,0,0,1,144,39.47a16.82,16.82,0,0,1,3.29-2.79,6.34,6.34,0,0,1,1.28-.11l1.24-1.48,1-.57.45-.11c.1.23.21.45.32.68.08-.23.19-.53.35-.91l.45-.45a15.76,15.76,0,0,0,1.77-.34,5.1,5.1,0,0,0,1.57-1.25A17.54,17.54,0,0,0,159,31l.55.34a1.24,1.24,0,0,1,.55-.63c.3-.18.78-.47,1.45-.85l.33.12,4.09-1.14.33-.34a2.41,2.41,0,0,1,1.21.11,2.53,2.53,0,0,1,1.76-.91,1.89,1.89,0,0,1,.88.23,1.52,1.52,0,0,1,.55-.68H171c-.07,0,.08,0,.45.11a2.15,2.15,0,0,0,1.43.57h.22a1.68,1.68,0,0,1,.44-.68l.44.22,2.09-.22,1.11.68.54-.46,1.88.91a3.4,3.4,0,0,0,.88-.34l.33.23a3.37,3.37,0,0,1,2.11.68l1.21-.11c.89.3,2.36.83,4.44,1.59q3.57,2.51,8.19,5.34l.67.12c.18,1.29,1.31,1.89,3.39,1.82.27.56.55,1.13.82,1.7a6.73,6.73,0,0,1,4.13,3.64l.69.45c0,.08,0,.15,0,.23.7.91,1.44,1.78,2.22,2.62a4.48,4.48,0,0,1,1.45,2.95l1.05.91-.22.23c0,.11.08.23.13.34a2.05,2.05,0,0,0,.58.57,2.09,2.09,0,0,0,.27,1.19c.16.19.52.7,1.08,1.54a23.21,23.21,0,0,1,1.08,4.32,33.26,33.26,0,0,0,.63,4.43c-.09.49-.19,1-.28,1.48C214.58,64.84,214.72,65.37,214.85,65.9Zm-80-17.74a9.08,9.08,0,0,1-.89,1.48,3.83,3.83,0,0,0-.78,1.71,1.27,1.27,0,0,0,.09.57,1.7,1.7,0,0,1-1.14.34c0-.08-.07-.15-.1-.23s0-.38,0-.57-.07-.15-.11-.23h-.22a3.28,3.28,0,0,1,1.19-2c1.15-.91,1.77-1.4,1.84-1.48A1.51,1.51,0,0,1,134.88,48.16Zm.83-1.47a3.54,3.54,0,0,1-.57.45l.46-.45Zm30.48,4.43-.22-.23a1.06,1.06,0,0,0-.45-.11l-.12.11a5.25,5.25,0,0,0-2.92.68c-.68.46-1.36,1-2,1.48-.68.08-1.93.87-3.75,2.39a20.44,20.44,0,0,0-3.44,3.3c-.46.68-1.16,1.59-2.08,2.73a46.32,46.32,0,0,0-4.38,3.06c-.08.08-.87,1.25-2.36,3.53-.16.07-.31.15-.46.23a12.64,12.64,0,0,0-.41,2.84A6.87,6.87,0,0,0,145,75.79c0,.19,0,.38,0,.57l.91.79c0,.12,0,.23,0,.34,2.33,6.22,4.91,9.67,7.69,10.35l1.77-1.37c.48-1.66,1.17-4.16,2.05-7.5,0-.23-.07-.45-.11-.68q1.7-7,2.63-10.69a62,62,0,0,1,3.26-9.89,12,12,0,0,0,.91-1.59,18.11,18.11,0,0,0,.46-2.27A7.29,7.29,0,0,1,166.19,51.12Z"/><path class="cls-1" d="M337.62,98.75l-1.49,1c0,.19.05.38.08.57a8,8,0,0,0,1.37,1.37q-.56,1-1.89,3.18a21.38,21.38,0,0,1-3.11.11c-1.7,0-2.42,0-2.17.12l-2.52.57a2.12,2.12,0,0,0-1.6-.46c-1-.08-1.63-.11-1.79-.11l-.53.45a3,3,0,0,0-2.12-.91,7.85,7.85,0,0,1-2.44-.57,58.29,58.29,0,0,1-5.88.12c-1.55.23-3.16.53-4.85.91l-1.55-.12a17.9,17.9,0,0,1-1.83.46q-2,0-5.75.34a126.7,126.7,0,0,0-13.68,2.61c-7.41,1.67-11.5,2.88-12.23,3.64l-1-.23L268.49,113a9.07,9.07,0,0,1-2.71-1.14l-.58.12a13.65,13.65,0,0,1-2.76-1.82c-1.36-1.14-2.2-1.82-2.53-2.05a16.67,16.67,0,0,1-2.22-1.13c-.09-.16-.06-.23.1-.23l-.14-.34h-.83c-.28-.53-1.3-2-3-4.32a8.86,8.86,0,0,1-2.21-4.55c.11-.68.22-1.36.32-2l-.43-1.14c.33-.76,1.44-1.14,3.31-1.14a37.77,37.77,0,0,1,8,1.59l0,.34h.35A6,6,0,0,1,266,96.59a14.63,14.63,0,0,0,2.55,1.71,65.87,65.87,0,0,0,7,2.27l1.85-.34,1.34.45c.23-.07,1.86-.15,4.92-.22.77-.08,1.39-.15,1.85-.23l1.68.34.68-.34h.82l.76-.57.74.34,1.6-.45h1.53a1.05,1.05,0,0,1,.36.11.94.94,0,0,0,.37.11L294,99a24.44,24.44,0,0,1-1.18-2.27,22.57,22.57,0,0,0-.53-2.73,3.68,3.68,0,0,1,.37-1.94l.43-.34c-1.28-.3-1.95-.45-2-.45l-.09.23a25.79,25.79,0,0,0-4-1.25,1.45,1.45,0,0,0-1.12.45,60.26,60.26,0,0,1-5.69-4.55l-.29-.57q-3.59-1-8.32-6,1.41-3.53,7.32-4.21l.5.35c.73-.31,1.53-.59,2.38-.86a4,4,0,0,1,2.36-.06l.55-.22,1.4.22,2.37-.45a17.69,17.69,0,0,1,4.11.8q.15-.69.45-2.16l.3-.34c0-.16-.11-.31-.16-.46a.86.86,0,0,1-.5-.34q.09-.23.57-1.14a11.94,11.94,0,0,0-.6-1.25c0-.11,0-.23,0-.34h-2.4a35.26,35.26,0,0,0-5.41.8c-2.92.53-4.48.94-4.68,1.25a34.5,34.5,0,0,0-4.48-1.25,8.43,8.43,0,0,1-4.2-2.16,7.93,7.93,0,0,1-3.25-1.82,9.6,9.6,0,0,0-2.43-1.71,10.06,10.06,0,0,0-4.37-4.66l-.17-.68q-1.15-1.71-2.57-3.75a5,5,0,0,1-1-1c0-.31,0-.61-.07-.91A6.34,6.34,0,0,1,256.11,51c-.55-1.18-1-1.8-1.39-1.88-.09-.22-.18-.45-.28-.68a2.44,2.44,0,0,1-1.23-1.48,2,2,0,0,1,.13-1.25L251.75,44c0-.31,0-.61.05-.91l-1.07-.8.27-.79a2.68,2.68,0,0,1-.9-.23l-.29-.8.09-.34a1.9,1.9,0,0,0,.52-.57,23.43,23.43,0,0,0-1.8-3.18c.23-1.89.37-2.57.41-2q-.75-2.5-1.32-4.44l-.47-.34.42-1.82-.4-1a4.73,4.73,0,0,0,1.36-2.39,2.26,2.26,0,0,1,2.19-1.48l.71-.79.21-.12a1.67,1.67,0,0,1,.5-.56,1.36,1.36,0,0,0,.65-.12c.16.23.37.5.61.8l0-.34a2.29,2.29,0,0,0,.1-.23h.22l.35.34L253.68,23l2.24.57.69-1a3,3,0,0,1,2.77,1.7l1.53-.11a14.76,14.76,0,0,0,1.32,1.36l.68.23a4.06,4.06,0,0,0,1.14,1.7c.21-.18.41-.37.61-.56a14.23,14.23,0,0,0,3.39,2.16c2.08,1,3.31,1.59,3.7,1.81a48.48,48.48,0,0,0,4,3.19c0,.07.07.26.17.57,0,.11-.05.22-.08.34l1.39,1.7a42.49,42.49,0,0,1,7.68-.91,12.13,12.13,0,0,0,3.59-.68,8.8,8.8,0,0,0-1.25-2.27c0-.12,0-.23,0-.34,1.39-2.12,3.11-3.19,5.17-3.19a1.2,1.2,0,0,1,.54-.11,4.78,4.78,0,0,1,1.14.34c.12-.23.26-.34.41-.34s.63.11,1.69.34a5.89,5.89,0,0,1,.74,2.5,7,7,0,0,1-.1,3c.14-.08.28,0,.42.23a1,1,0,0,0,.87.34l.24.11c.25.23.62.61,1.13,1.14a6.49,6.49,0,0,0,.19.68,2.73,2.73,0,0,1,.25.23,1.68,1.68,0,0,1,.74.56,5,5,0,0,1,.09,1.71l.25.23.73.45a5,5,0,0,1,.29.57c-.72.84-1.75,2.12-3.11,3.86a3.33,3.33,0,0,0-3.18,2.51,13.74,13.74,0,0,0,.06,4.43,23.7,23.7,0,0,1,0,4.09c.29.61.59,1.21.88,1.82,3.39-.76,4.92-2.43,4.61-5a5.17,5.17,0,0,0-.37-1.25,5.29,5.29,0,0,1-.38-1.25l.09-.23.1-.11.35.11L305,52.94c-.19-12.58-.53-20.5-.94-23.76a10.82,10.82,0,0,0-1.87-4.43,9.05,9.05,0,0,0-3.59-.57A17.55,17.55,0,0,1,295,24a40,40,0,0,1-6-2.73,33.34,33.34,0,0,1-5.61-3.29l2.71-2.16c.43-.08,1.12-.25,2.07-.52a9.13,9.13,0,0,1,2.3-.39q3.33.68,8,1.59a7.27,7.27,0,0,1,5.12-1.71A33.31,33.31,0,0,1,309,15.88,2.77,2.77,0,0,1,310.57,17l.31-.12,1.26.46a7.4,7.4,0,0,1,2,.91l.53-.12.27.34a15.14,15.14,0,0,1,4.8,4.66l.38.35a2.48,2.48,0,0,1,1.48,1.13c-.27.68-.72,1.71-1.33,3.07-.07,1.06-.15,2.35-.23,3.87.07.22.14.45.2.68l-.15,2.84.6,1.14a10.1,10.1,0,0,0-.5,3.58,11.08,11.08,0,0,1-.34,3.24,8.66,8.66,0,0,1-1.06,2,11.4,11.4,0,0,0-1.19,4.49,18.43,18.43,0,0,0-.14,4.77l-1.07,2.16a13.18,13.18,0,0,1-.28,3.87,25.28,25.28,0,0,0-.38,4h-1c-.22.07-.45.91-.7,2.5l-1.11.23c-2.28,0-3.28,0-3-.12a6.94,6.94,0,0,1-3.4-2.61A19.46,19.46,0,0,0,304,61c0-.27.09-.53.13-.8l-.47-1a13.68,13.68,0,0,0-2.81,4,5.59,5.59,0,0,0-1.24.11c-.51.16-1,.93-1.49,2.33a7.85,7.85,0,0,0-.61,3.13c0,.08.31,1.71.9,4.89.4.15,1,.38,1.92.68a6.17,6.17,0,0,1,2.11-.57,3.08,3.08,0,0,1,.85.34,2.9,2.9,0,0,1,1.12-.22,5.59,5.59,0,0,1,2.13.45,28.74,28.74,0,0,0,6,2.73,4.89,4.89,0,0,1,1.91,1.36h-.35a.86.86,0,0,1-.21.57,1.25,1.25,0,0,1-.58.46l-.2.22c0,.12,0,.23,0,.34.45.54.91,1.07,1.36,1.6-.14.15-.85.89-2.15,2.21a18.92,18.92,0,0,1-2.07,2c-1,.31-2.34.76-4.13,1.37-4.2,1.13-6.22,2.54-6,4.2.07.53.27,1.67.63,3.41a10.71,10.71,0,0,1,.51,3.41l.38.23a11.77,11.77,0,0,0,2.14.23,15.37,15.37,0,0,0,6.08-1.14.45.45,0,0,0-.08.34l.16.34a1.77,1.77,0,0,0,.78.57,11.67,11.67,0,0,0,2.16-.57l.28-.57v.12c.06.11.11.23.16.34l.27.23.34-.12a1.42,1.42,0,0,1,1-1c.92-.15,1.42-.23,1.49-.23A27.39,27.39,0,0,1,322,95.11l.61.23,1.56-.57a52.55,52.55,0,0,1,9.59,1.59l.42,1.25.92-.11h.47C336.24,97.88,336.93,98.3,337.62,98.75ZM291.44,59.08q-1.29-11.59-2.29-13.64c-.09-.08-1.61-.5-4.56-1.25s-4.53-1.14-4.75-1.14l.09.91.48.34a12.77,12.77,0,0,0,.73,2.73,12,12,0,0,1-.48,1.93,6.94,6.94,0,0,0-.07,2.61,5.32,5.32,0,0,1-.27,1.77A5.09,5.09,0,0,0,280,55.1c.1.23.49,1.52,1.18,3.86a4.83,4.83,0,0,0,2.49,3.19h.56A9.73,9.73,0,0,0,291.44,59.08Zm28-8.87-.09.11-.21.12.06-.34a.29.29,0,0,1,.21-.12Z"/><path class="cls-2" d="M22.64,79.2a4,4,0,0,0-1.08,1.59,3.43,3.43,0,0,1-1.44,1.71c.06.11.13.22.19.34s-.13.38-.19.56L17,84.09a7.43,7.43,0,0,1-3.84-2.39A30.12,30.12,0,0,1,8.37,72,27.15,27.15,0,0,1,6.78,61.35a2,2,0,0,1-.09-.91c.08-.53.67-1,1.79-1.36a2.49,2.49,0,0,1-.08-1,21.22,21.22,0,0,1,2.32-2.72,23.1,23.1,0,0,1,8.22-1.48,7.66,7.66,0,0,0,2-.34l.48.57.05.45c-.05.15-.11.3-.17.46l.31.22a10.2,10.2,0,0,0,.05,2.16q-2.26,1.71-2.95,6.71a11,11,0,0,0,.23,4.21l-.61.34C21.24,72.19,22.7,75.71,22.64,79.2ZM105.23,62c-.1.42-.2.84-.29,1.25a9.29,9.29,0,0,0-1.75.69,1.93,1.93,0,0,0-1,1.47l-.58.12-.56-.23-.49.57.78.34-1.62.34-.26.46a18.53,18.53,0,0,1-4.24-3.93c-1.66-1.93-2.59-3-2.8-3.12l-.12.11a2.47,2.47,0,0,0-.15.46l.45,1.7c-.68,2.12-2.54,3.19-5.58,3.18a6.94,6.94,0,0,1-3.34-1,3.41,3.41,0,0,1-2-2.45,2.8,2.8,0,0,0-2.08-1c-3.85,1.74-6.51,2.62-7.95,2.62a9.28,9.28,0,0,1-4.77-1.43,7.9,7.9,0,0,1-3.3-3.46,3.09,3.09,0,0,1,2.6-1.14,10.4,10.4,0,0,0,2.87-.46,11.43,11.43,0,0,1,3.64,1,13.86,13.86,0,0,0,1.33,1.7,2.17,2.17,0,0,0,2,.91,13.69,13.69,0,0,0,3.55-1.7,19.25,19.25,0,0,1,4-1.94,41.51,41.51,0,0,1,7.75,2.51L92.38,59a18.13,18.13,0,0,0-1.25-4.77,5.59,5.59,0,0,0-3.75-2.73,12.53,12.53,0,0,1-3.21-.68l-1,.34Q79,50.55,70.69,49.3l-1.87.8-.6-.8-1,.8-.91-1-.24.12-.32-.12a1.81,1.81,0,0,0-.91.12,6.89,6.89,0,0,1-2,1l-.25.23-.43-.23-2.4.46-.71-.8a7.47,7.47,0,0,1-1.62.45c-.09.12-.18.23-.26.35h-.34l-.25.22c.07.08.14.15.2.23,0-.23-.13-.15-.47.23,0,.11,0,.22,0,.34l-.39-.57-.7.23-.65-.23H54.2l-.13.23c0,.19,0,.38,0,.57a3.75,3.75,0,0,0-1-.12,1.32,1.32,0,0,0-.51.57l-1.07-.57a39.3,39.3,0,0,0-3.6,2.05l-.74-.46a21.91,21.91,0,0,1-4.39,2.39,14.13,14.13,0,0,0-4.32,2.62l.32.11.47-.11a15.82,15.82,0,0,0,3.26,1.25h-.12l-.14.22.08.34.07.35.14-.23.24-.12h.34l.19.35c.37.75.88,1.93,1.53,3.52a9,9,0,0,0,1.33,4.55c-.14.83-.27,1.66-.4,2.5l.24,2a32.3,32.3,0,0,1-2.71,2.62l-1-.11-3.94,1.25a3.26,3.26,0,0,1-2.47-1c-.65-.68-1.28-1.36-1.88-2a17.5,17.5,0,0,1-2.44-1.71,6.2,6.2,0,0,1-2-2.84,8.51,8.51,0,0,1-.87-3.53l-.3-.34L29,63.85l-.37-.68,1-1.82-.27-.57a4.07,4.07,0,0,1,2.82-1.7l.06-.46a4,4,0,0,0-1.65-.45,7.18,7.18,0,0,0-2.45.62,13.62,13.62,0,0,1-2.14.74,4.21,4.21,0,0,1-2.26-.91,13.53,13.53,0,0,1,6.86-5,65.63,65.63,0,0,0,7.24-2.95,14.61,14.61,0,0,0-4.61-1.82l-1.4.34a4.56,4.56,0,0,0-2.7-.8,6.29,6.29,0,0,0-2.31.46l-.27-.46L26,48.16a6.29,6.29,0,0,0-1.13.12.86.86,0,0,0-.7-.68,2.53,2.53,0,0,0-1.12,0,2.25,2.25,0,0,1-1,0h-.67l-.63-1.14H20a5.08,5.08,0,0,0-.23-.8,18,18,0,0,1-1.79-.79c.07-.27.15-.53.22-.8a1.46,1.46,0,0,1-.89-.79c-.22-.08-.5-.19-.85-.35a4.12,4.12,0,0,1-1.34-2.38l.21-.68c-.47-.38-.81-1.61-1-3.7a15.4,15.4,0,0,1,0-4.38q.15-.22,4-2.95c.06.08.2.11.42.11l.24-.11a6,6,0,0,1,.94-.46l.43.12.35-.12.2.12h.33l.6-.34a2.48,2.48,0,0,0,1.18.22,8,8,0,0,0,1.05-.45,9.9,9.9,0,0,0,3.48-.46A10.21,10.21,0,0,1,29.84,29a4,4,0,0,1,.9-.11,7.6,7.6,0,0,1,3.15,1.25l.8-.23a12.7,12.7,0,0,0,3,2.05c.32.45,2.22,2.57,5.79,6.36a16.29,16.29,0,0,1,4.29,7.39c-.33.31-.8.8-1.4,1.48l-.3.68.3.34.55.12a27.71,27.71,0,0,0,2.69-1,6.26,6.26,0,0,1,2.92,0c0-.31.26-.34.68-.12A21.8,21.8,0,0,1,62.68,45l1.39.68q1.46-1.12,7.27-1.13a17.1,17.1,0,0,0,2-.17,15.35,15.35,0,0,1,2-.17,24.23,24.23,0,0,1,3.49.39,23.12,23.12,0,0,0,3.6.4,12.34,12.34,0,0,0,3-.74,12.89,12.89,0,0,1,3.92-.74,20.12,20.12,0,0,1,8.24,2.16c3.48,1.52,5.7,3.23,6.64,5.12a10.14,10.14,0,0,0-.33,1.7A10.76,10.76,0,0,1,105,57.14C105.08,58.74,105.18,60.37,105.23,62Zm.27,38.2a3.11,3.11,0,0,0-1.13,1.25c-.35.61-.66,1.18-.92,1.7a28.37,28.37,0,0,0-3.23,2.62q-1.5,1.36-2.88,2.73c-1.26,1.21-1.84,2.23-1.74,3.07-.08,0-.92.11-2.51.34q-1.68.23-1.86,1l0-.23-.23-.11-.11-.11-.13.11-3.32,1.59c-.47-.07-.71-.07-.71,0l-.59-.11a13.54,13.54,0,0,0-1.46.45l-.45-.34-5.71-1.59-.85.23a1.22,1.22,0,0,0-.31-.57l-.34-.23a10.77,10.77,0,0,0-1.74-.45l-.37.11-.38.34c0-.19,0-.38,0-.57-.15-.11-.3-.22-.44-.34L73.8,111l-.25.11a.65.65,0,0,0,.2.46l-.49.22-.32-.45H71.87c-.05-.3-.11-.61-.16-.91l-.23-.11-.76.57a2,2,0,0,0,0-.23.39.39,0,0,1,.27-.34,5.42,5.42,0,0,0-1.73-.57l-.52.45-5.27-1.93a8.24,8.24,0,0,0-2.69.91c-5,5.61-8.87,8.41-11.42,8.41-.69-.22-1.72-.6-3.1-1.13a4,4,0,0,1-.3-2.22,11.23,11.23,0,0,0,0-2l.47-1,.27-.34.49-.12.7.12a61.4,61.4,0,0,1,7.55-5.58l.07-.68c-.11-.11-.22-.22-.32-.34a14.62,14.62,0,0,1-4.74-2.16l-1.08.23c-.23-.08-1.76-.87-4.57-2.39A11.83,11.83,0,0,0,40,98.41a7.21,7.21,0,0,0-5,1.93l-4.09,3.75c-.7.54-1.71,1.41-3,2.62a37.88,37.88,0,0,0-2.64,3.18,12.39,12.39,0,0,1-3.89,2.62,4.5,4.5,0,0,1-3.15-2.28,6,6,0,0,1-.9-4,11.39,11.39,0,0,1,2.37-5.45c1.33-.61,2.67-1.25,4-1.93A5.3,5.3,0,0,0,26.3,96a97.26,97.26,0,0,1,10.05-7.78c5.16-3.68,8.6-5.9,10.38-6.65q2-.57,6.24-2.16a4.41,4.41,0,0,1,4,2.95c1,2.43,1.72,3.73,2.16,3.92a3.76,3.76,0,0,0,1.48.29,22.26,22.26,0,0,0,4.72-.74A22.28,22.28,0,0,1,70,85.11a18.86,18.86,0,0,1,8.41,2.16,21.93,21.93,0,0,0,2.41,3.41,26.1,26.1,0,0,1-4.65,4.09c-2,1.59-3.15,3.19-3.44,4.78a30,30,0,0,0,3.6.45,8.54,8.54,0,0,0,1.79-.28,9.37,9.37,0,0,1,1.79-.29c.23,0,1.34.25,3.35.74a21.79,21.79,0,0,1,3.34,1l1.54-.11a14.12,14.12,0,0,0,5.24.79,26.69,26.69,0,0,0,11.19-2.16ZM81.72,17.58a8.45,8.45,0,0,1-4.61,1.6c.67-.08-.9-.12-4.69-.12L67.07,20.2l-2-.46q-4,1.36-8.45,3.41c-.59,0-2.27.69-5.05,2.05-.43-.15-1.09-.41-2-.79-.16.07-1,.34-2.51.79L45.3,25l-.89,1-1.07-.23-1.6.45a10,10,0,0,0-2.26-2.16c1-3,4-6.4,8.73-10.11a8.26,8.26,0,0,0,2.42-1.31A6.07,6.07,0,0,1,54,11.45l.62-.69.08.23.21.11.2.12.34-.12,1-.79c.18-.3.67-.53,1.48-.68a5.44,5.44,0,0,0,2.6-1.54,4.92,4.92,0,0,1,2.14-1.42l2.58.12a9.25,9.25,0,0,0,4.25.79,39.66,39.66,0,0,1,5,.46,4,4,0,0,1,2,1.25,24.41,24.41,0,0,0,1.92,1.59c.84.38,2,1,3.54,1.82-.22.87-.43,1.74-.65,2.61C81.41,16.07,81.57,16.83,81.72,17.58ZM62.62,34.3c-.43.64-.87,1.28-1.3,1.93,0,.45-.09.91-.14,1.36a17.51,17.51,0,0,0-2.36.85,7.9,7.9,0,0,1-2.7.74c-.59,0-1.33-.58-2.2-1.76A6.77,6.77,0,0,0,50.46,35,7,7,0,0,0,49,30.32c.15-.42.31-.84.47-1.25,0-.69-.07-1.37-.1-2.05a27.22,27.22,0,0,1,5.32-.34c1.54,0,3.11,1.06,4.73,3.18Q61,32,62.62,34.3ZM78.56,75.68c-.25.64-.49,1.28-.74,1.93a56.38,56.38,0,0,1-7.16,2.21,36.79,36.79,0,0,1-7,1.43,6.53,6.53,0,0,1-3.24-1.14A6.24,6.24,0,0,0,57.52,79a30.72,30.72,0,0,1-5.22-5.34,58.23,58.23,0,0,1-3.2-6.48c-1.37-2.88-2-4.74-1.9-5.57a2.42,2.42,0,0,1,.47-1.14,8,8,0,0,0,1.55-1.25c.72-.68,1.22-1,1.53-1a2.94,2.94,0,0,1,1.6.91A9.2,9.2,0,0,0,53.61,59h1.25c1.73,0,3.39,1.56,5,4.67q.21,5.91,5.15,8.18A10.53,10.53,0,0,0,68.68,73l2.67-.34a5.58,5.58,0,0,1,4.12.79ZM65.18,92.39a7.07,7.07,0,0,0-3.53-1H60.14c-2.57,0-4,.31-4.41.91a18.21,18.21,0,0,1,4.05,2.84,6.34,6.34,0,0,1,1.72.4,5.73,5.73,0,0,0,1.83.4,19.6,19.6,0,0,0,1.42-2.73A1.17,1.17,0,0,1,65.18,92.39ZM88,28q-.33,4.32-4.7,7.85a66.89,66.89,0,0,0-6.72,5.91,8.48,8.48,0,0,0-1.59.28,7.9,7.9,0,0,1-1.7.29,4.56,4.56,0,0,1-2.75-1.08A2,2,0,0,1,69.62,39l-.19-.46c0-.11,0-.23,0-.34a21.86,21.86,0,0,1,1.37-2.84v-.11l-.21-.12q1.06-3.18,2.68-4a4.91,4.91,0,0,1,1.05-1.93A6.56,6.56,0,0,0,75.55,27c2.78-2.35,5.07-3.52,6.9-3.52a6.76,6.76,0,0,1,3.79,1.3A3.51,3.51,0,0,1,88,28Z"/><path class="cls-2" d="M214.85,65.9a9.83,9.83,0,0,0-.73,4.32c0,3-.05,4.47-.05,4.54l-.69.12-.22.23a9.37,9.37,0,0,1-1.78,4.66c-.19,1-.49,2.35-.89,4.09a27,27,0,0,0-1.85,3.41c-.14.68-.37,1.67-.72,3,0-.16,0-.31,0-.46a4.14,4.14,0,0,0-.45.68l-.06,1.48-.7.23a56.56,56.56,0,0,0-2.29,5.23c.4-2.43,1-3.91,1.74-4.44a60.32,60.32,0,0,0,2.09-17.16c-.32-.3-.71-1.58-1.17-3.81a21.11,21.11,0,0,1-.6-4.26l.22-.34a20.46,20.46,0,0,0-2.76-4.21c-.05-1.82-1.26-4-3.6-6.59l-1,.22c.24.31.63.76,1.17,1.37l-.1.45-.12-.45a4.38,4.38,0,0,1-.94-1c0-.18,0-.37,0-.56q-.49-1.14-1.32-2.73a2.17,2.17,0,0,1-1.37-.57q-.69-.57-1.26-1.14l-2.39-1H191.4a2.74,2.74,0,0,0-1.37-1l-1.7-.68-.45-.57-.9.45c-.82-.23-2.33-.8-4.51-1.7a2.23,2.23,0,0,1-1,.22,3.59,3.59,0,0,1-1-.17,4.12,4.12,0,0,0-1-.17h-.67c-.11.12-.22.23-.34.34l-.56-.34c-.15.08-.89.3-2.24.68,0-.15-.08-.3-.11-.45V47.6l-.12.11-1.33,1.93v.46a11.62,11.62,0,0,1,.79,1.82c-.07.26-.14.53-.22.79a4.37,4.37,0,0,1,.52,2.22,4.79,4.79,0,0,0,.41,2.1,5.08,5.08,0,0,0-.55,2.5c0,.87,0,1.75,0,2.62-.45.91-1,2.12-1.69,3.63a9,9,0,0,1-.68,3.19c-.38,1.06-.75,2.16-1.13,3.29-.16.53-.42,1.86-.8,4a22.18,22.18,0,0,1-.92,2.62c-.23.53-.86,2.74-1.91,6.65s-1.63,6.16-1.7,6.76c.11.53.23,1.06.34,1.59l-.35.23c-.16.38-.39,1-.71,1.76s-.73,2-1.24,3.53-1,3.05-1.49,4.49a9.85,9.85,0,0,1-2.63,4c-.32-.08-1.06-.84-2.23-2.28a9,9,0,0,1-3.29-.91,34,34,0,0,1-3-3.24A17.74,17.74,0,0,1,149,98q-.22-.69-.66-2.28c-2.15-2.19-3.32-3.41-3.55-3.64a14.61,14.61,0,0,0-4-2.84l-.7.12c-2.64,0-5.79-1.44-9.4-4.32a2.67,2.67,0,0,0-1.9-1.94,10.67,10.67,0,0,0-1.56-3.35,14.17,14.17,0,0,1-1.85-4.38c.09-.19.17-.38.25-.57-.06-1.28-.13-2.57-.19-3.86.09-2.35.3-3.71.62-4.09a3.94,3.94,0,0,1-.38-2c0-.57,0-1.14.07-1.7a13.32,13.32,0,0,0,1.94-3.19,5,5,0,0,1,2-2.5c-.07-.3-.13-.6-.2-.91.3-1.89.9-2.91,1.8-3.07.13-.22.25-.45.37-.68.05.61.11,1.21.16,1.82l-.1-.34-.22-.11-.23.11q-.26.8-2.05,6.82a2.53,2.53,0,0,0,.19,1,5.3,5.3,0,0,0-.16,1,3.89,3.89,0,0,0,.5,2.16l-.9-.46-.63,1.59.56.46,1.52-1c0-.45-.05-.91-.07-1.36.18-5,2.72-11.25,7.49-18.76a3.3,3.3,0,0,0-.13.8,2.48,2.48,0,0,0,.09.8,50.68,50.68,0,0,1,2.91-4.33A41.55,41.55,0,0,1,144,39.47a16.82,16.82,0,0,1,3.29-2.79,6.34,6.34,0,0,1,1.28-.11l1.24-1.48,1-.57.45-.11c.1.23.21.45.32.68.08-.23.19-.53.35-.91l.45-.45a15.76,15.76,0,0,0,1.77-.34,5.1,5.1,0,0,0,1.57-1.25A17.54,17.54,0,0,0,159,31l.55.34a1.24,1.24,0,0,1,.55-.63c.3-.18.78-.47,1.45-.85l.33.12,4.09-1.14.33-.34a2.41,2.41,0,0,1,1.21.11,2.53,2.53,0,0,1,1.76-.91,1.89,1.89,0,0,1,.88.23,1.52,1.52,0,0,1,.55-.68H171c-.07,0,.08,0,.45.11a2.15,2.15,0,0,0,1.43.57h.22a1.68,1.68,0,0,1,.44-.68l.44.22,2.09-.22,1.11.68.54-.46,1.88.91a3.4,3.4,0,0,0,.88-.34l.33.23a3.37,3.37,0,0,1,2.11.68l1.21-.11c.89.3,2.36.83,4.44,1.59q3.57,2.51,8.19,5.34l.67.12c.18,1.29,1.31,1.89,3.39,1.82.27.56.55,1.13.82,1.7a6.73,6.73,0,0,1,4.13,3.64l.69.45c0,.08,0,.15,0,.23.7.91,1.44,1.78,2.22,2.62a4.48,4.48,0,0,1,1.45,2.95l1.05.91-.22.23c0,.11.08.23.13.34a2.05,2.05,0,0,0,.58.57,2.09,2.09,0,0,0,.27,1.19c.16.19.52.7,1.08,1.54a23.21,23.21,0,0,1,1.08,4.32,33.26,33.26,0,0,0,.63,4.43c-.09.49-.19,1-.28,1.48C214.58,64.84,214.72,65.37,214.85,65.9Zm-80-17.74a9.08,9.08,0,0,1-.89,1.48,3.83,3.83,0,0,0-.78,1.71,1.27,1.27,0,0,0,.09.57,1.7,1.7,0,0,1-1.14.34c0-.08-.07-.15-.1-.23s0-.38,0-.57-.07-.15-.11-.23h-.22a3.28,3.28,0,0,1,1.19-2c1.15-.91,1.77-1.4,1.84-1.48A1.51,1.51,0,0,1,134.88,48.16Zm.83-1.47a3.54,3.54,0,0,1-.57.45l.46-.45Zm30.48,4.43-.22-.23a1.06,1.06,0,0,0-.45-.11l-.12.11a5.25,5.25,0,0,0-2.92.68c-.68.46-1.36,1-2,1.48-.68.08-1.93.87-3.75,2.39a20.44,20.44,0,0,0-3.44,3.3c-.46.68-1.16,1.59-2.08,2.73a46.32,46.32,0,0,0-4.38,3.06c-.08.08-.87,1.25-2.36,3.53-.16.07-.31.15-.46.23a12.64,12.64,0,0,0-.41,2.84A6.87,6.87,0,0,0,145,75.79c0,.19,0,.38,0,.57l.91.79c0,.12,0,.23,0,.34,2.33,6.22,4.91,9.67,7.69,10.35l1.77-1.37c.48-1.66,1.17-4.16,2.05-7.5,0-.23-.07-.45-.11-.68q1.7-7,2.63-10.69a62,62,0,0,1,3.26-9.89,12,12,0,0,0,.91-1.59,18.11,18.11,0,0,0,.46-2.27A7.29,7.29,0,0,1,166.19,51.12Z"/><path class="cls-2" d="M337.62,98.75l-1.49,1c0,.19.05.38.08.57a8,8,0,0,0,1.37,1.37q-.56,1-1.89,3.18a21.38,21.38,0,0,1-3.11.11c-1.7,0-2.42,0-2.17.12l-2.52.57a2.12,2.12,0,0,0-1.6-.46c-1-.08-1.63-.11-1.79-.11l-.53.45a3,3,0,0,0-2.12-.91,7.85,7.85,0,0,1-2.44-.57,58.29,58.29,0,0,1-5.88.12c-1.55.23-3.16.53-4.85.91l-1.55-.12a17.9,17.9,0,0,1-1.83.46q-2,0-5.75.34a126.7,126.7,0,0,0-13.68,2.61c-7.41,1.67-11.5,2.88-12.23,3.64l-1-.23L268.49,113a9.07,9.07,0,0,1-2.71-1.14l-.58.12a13.65,13.65,0,0,1-2.76-1.82c-1.36-1.14-2.2-1.82-2.53-2.05a16.67,16.67,0,0,1-2.22-1.13c-.09-.16-.06-.23.1-.23l-.14-.34h-.83c-.28-.53-1.3-2-3-4.32a8.86,8.86,0,0,1-2.21-4.55c.11-.68.22-1.36.32-2l-.43-1.14c.33-.76,1.44-1.14,3.31-1.14a37.77,37.77,0,0,1,8,1.59l0,.34h.35A6,6,0,0,1,266,96.59a14.63,14.63,0,0,0,2.55,1.71,65.87,65.87,0,0,0,7,2.27l1.85-.34,1.34.45c.23-.07,1.86-.15,4.92-.22.77-.08,1.39-.15,1.85-.23l1.68.34.68-.34h.82l.76-.57.74.34,1.6-.45h1.53a1.05,1.05,0,0,1,.36.11.94.94,0,0,0,.37.11L294,99a24.44,24.44,0,0,1-1.18-2.27,22.57,22.57,0,0,0-.53-2.73,3.68,3.68,0,0,1,.37-1.94l.43-.34c-1.28-.3-1.95-.45-2-.45l-.09.23a25.79,25.79,0,0,0-4-1.25,1.45,1.45,0,0,0-1.12.45,60.26,60.26,0,0,1-5.69-4.55l-.29-.57q-3.59-1-8.32-6,1.41-3.53,7.32-4.21l.5.35c.73-.31,1.53-.59,2.38-.86a4,4,0,0,1,2.36-.06l.55-.22,1.4.22,2.37-.45a17.69,17.69,0,0,1,4.11.8q.15-.69.45-2.16l.3-.34c0-.16-.11-.31-.16-.46a.86.86,0,0,1-.5-.34q.09-.23.57-1.14a11.94,11.94,0,0,0-.6-1.25c0-.11,0-.23,0-.34h-2.4a35.26,35.26,0,0,0-5.41.8c-2.92.53-4.48.94-4.68,1.25a34.5,34.5,0,0,0-4.48-1.25,8.43,8.43,0,0,1-4.2-2.16,7.93,7.93,0,0,1-3.25-1.82,9.6,9.6,0,0,0-2.43-1.71,10.06,10.06,0,0,0-4.37-4.66l-.17-.68q-1.15-1.71-2.57-3.75a5,5,0,0,1-1-1c0-.31,0-.61-.07-.91A6.34,6.34,0,0,1,256.11,51c-.55-1.18-1-1.8-1.39-1.88-.09-.22-.18-.45-.28-.68a2.44,2.44,0,0,1-1.23-1.48,2,2,0,0,1,.13-1.25L251.75,44c0-.31,0-.61.05-.91l-1.07-.8.27-.79a2.68,2.68,0,0,1-.9-.23l-.29-.8.09-.34a1.9,1.9,0,0,0,.52-.57,23.43,23.43,0,0,0-1.8-3.18c.23-1.89.37-2.57.41-2q-.75-2.5-1.32-4.44l-.47-.34.42-1.82-.4-1a4.73,4.73,0,0,0,1.36-2.39,2.26,2.26,0,0,1,2.19-1.48l.71-.79.21-.12a1.67,1.67,0,0,1,.5-.56,1.36,1.36,0,0,0,.65-.12c.16.23.37.5.61.8l0-.34a2.29,2.29,0,0,0,.1-.23h.22l.35.34L253.68,23l2.24.57.69-1a3,3,0,0,1,2.77,1.7l1.53-.11a14.76,14.76,0,0,0,1.32,1.36l.68.23a4.06,4.06,0,0,0,1.14,1.7c.21-.18.41-.37.61-.56a14.23,14.23,0,0,0,3.39,2.16c2.08,1,3.31,1.59,3.7,1.81a48.48,48.48,0,0,0,4,3.19c0,.07.07.26.17.57,0,.11-.05.22-.08.34l1.39,1.7a42.49,42.49,0,0,1,7.68-.91,12.13,12.13,0,0,0,3.59-.68,8.8,8.8,0,0,0-1.25-2.27c0-.12,0-.23,0-.34,1.39-2.12,3.11-3.19,5.17-3.19a1.2,1.2,0,0,1,.54-.11,4.78,4.78,0,0,1,1.14.34c.12-.23.26-.34.41-.34s.63.11,1.69.34a5.89,5.89,0,0,1,.74,2.5,7,7,0,0,1-.1,3c.14-.08.28,0,.42.23a1,1,0,0,0,.87.34l.24.11c.25.23.62.61,1.13,1.14a6.49,6.49,0,0,0,.19.68,2.73,2.73,0,0,1,.25.23,1.68,1.68,0,0,1,.74.56,5,5,0,0,1,.09,1.71l.25.23.73.45a5,5,0,0,1,.29.57c-.72.84-1.75,2.12-3.11,3.86a3.33,3.33,0,0,0-3.18,2.51,13.74,13.74,0,0,0,.06,4.43,23.7,23.7,0,0,1,0,4.09c.29.61.59,1.21.88,1.82,3.39-.76,4.92-2.43,4.61-5a5.17,5.17,0,0,0-.37-1.25,5.29,5.29,0,0,1-.38-1.25l.09-.23.1-.11.35.11L305,52.94c-.19-12.58-.53-20.5-.94-23.76a10.82,10.82,0,0,0-1.87-4.43,9.05,9.05,0,0,0-3.59-.57A17.55,17.55,0,0,1,295,24a40,40,0,0,1-6-2.73,33.34,33.34,0,0,1-5.61-3.29l2.71-2.16c.43-.08,1.12-.25,2.07-.52a9.13,9.13,0,0,1,2.3-.39q3.33.68,8,1.59a7.27,7.27,0,0,1,5.12-1.71A33.31,33.31,0,0,1,309,15.88,2.77,2.77,0,0,1,310.57,17l.31-.12,1.26.46a7.4,7.4,0,0,1,2,.91l.53-.12.27.34a15.14,15.14,0,0,1,4.8,4.66l.38.35a2.48,2.48,0,0,1,1.48,1.13c-.27.68-.72,1.71-1.33,3.07-.07,1.06-.15,2.35-.23,3.87.07.22.14.45.2.68l-.15,2.84.6,1.14a10.1,10.1,0,0,0-.5,3.58,11.08,11.08,0,0,1-.34,3.24,8.66,8.66,0,0,1-1.06,2,11.4,11.4,0,0,0-1.19,4.49,18.43,18.43,0,0,0-.14,4.77l-1.07,2.16a13.18,13.18,0,0,1-.28,3.87,25.28,25.28,0,0,0-.38,4h-1c-.22.07-.45.91-.7,2.5l-1.11.23c-2.28,0-3.28,0-3-.12a6.94,6.94,0,0,1-3.4-2.61A19.46,19.46,0,0,0,304,61c0-.27.09-.53.13-.8l-.47-1a13.68,13.68,0,0,0-2.81,4,5.59,5.59,0,0,0-1.24.11c-.51.16-1,.93-1.49,2.33a7.85,7.85,0,0,0-.61,3.13c0,.08.31,1.71.9,4.89.4.15,1,.38,1.92.68a6.17,6.17,0,0,1,2.11-.57,3.08,3.08,0,0,1,.85.34,2.9,2.9,0,0,1,1.12-.22,5.59,5.59,0,0,1,2.13.45,28.74,28.74,0,0,0,6,2.73,4.89,4.89,0,0,1,1.91,1.36h-.35a.86.86,0,0,1-.21.57,1.25,1.25,0,0,1-.58.46l-.2.22c0,.12,0,.23,0,.34.45.54.91,1.07,1.36,1.6-.14.15-.85.89-2.15,2.21a18.92,18.92,0,0,1-2.07,2c-1,.31-2.34.76-4.13,1.37-4.2,1.13-6.22,2.54-6,4.2.07.53.27,1.67.63,3.41a10.71,10.71,0,0,1,.51,3.41l.38.23a11.77,11.77,0,0,0,2.14.23,15.37,15.37,0,0,0,6.08-1.14.45.45,0,0,0-.08.34l.16.34a1.77,1.77,0,0,0,.78.57,11.67,11.67,0,0,0,2.16-.57l.28-.57v.12c.06.11.11.23.16.34l.27.23.34-.12a1.42,1.42,0,0,1,1-1c.92-.15,1.42-.23,1.49-.23A27.39,27.39,0,0,1,322,95.11l.61.23,1.56-.57a52.55,52.55,0,0,1,9.59,1.59l.42,1.25.92-.11h.47C336.24,97.88,336.93,98.3,337.62,98.75ZM291.44,59.08q-1.29-11.59-2.29-13.64c-.09-.08-1.61-.5-4.56-1.25s-4.53-1.14-4.75-1.14l.09.91.48.34a12.77,12.77,0,0,0,.73,2.73,12,12,0,0,1-.48,1.93,6.94,6.94,0,0,0-.07,2.61,5.32,5.32,0,0,1-.27,1.77A5.09,5.09,0,0,0,280,55.1c.1.23.49,1.52,1.18,3.86a4.83,4.83,0,0,0,2.49,3.19h.56A9.73,9.73,0,0,0,291.44,59.08Zm28-8.87-.09.11-.21.12.06-.34a.29.29,0,0,1,.21-.12Z"/><path class="cls-3" d="M411.49,42.38a23.48,23.48,0,0,0,.69,4.36,28.81,28.81,0,0,0,7-3,49.86,49.86,0,0,0,2.22,4.93A29.56,29.56,0,0,1,413.92,52c.52,1.25.6,1.38.76,1.74a34.06,34.06,0,0,0,8.49-4.41c.44.89,2.71,4.49,3.15,5.22A36.47,36.47,0,0,1,417.47,59a39.43,39.43,0,0,0,6.1,7.72l-3.76,4a21.93,21.93,0,0,0-11.51-3.39c-1.7,0-5.29.56-5.29,2.9,0,1.94,2.18,3.32,7,3.32,1.86,0,6.74,0,10.58-1.66a18.51,18.51,0,0,0-.44,4.32A9.13,9.13,0,0,0,420.3,78a34.27,34.27,0,0,1-10.14,1.29c-10.39,0-13.74-5-13.74-8.84,0-4.33,4-7.68,10.75-7.68a43.2,43.2,0,0,1,5.61.44,21.36,21.36,0,0,1-1.41-2.42,72,72,0,0,1-13.5,1.41,24.71,24.71,0,0,1-2.58-.12l-.69-6c2.47.12,4,.16,4.93.16a48.64,48.64,0,0,0,9.29-.93c-.2-.44-.32-.8-.76-1.77a78.52,78.52,0,0,1-10.1,1l-1.3-5.66a48.59,48.59,0,0,0,9.26-.65c-.93-2.42-1.22-3.39-1.66-4.72Z"/><path class="cls-3" d="M430.65,48.72a29.12,29.12,0,0,0,4.48.32c1.17,0,2.38-.08,4.12-.2a64,64,0,0,0,1.5-6.87l6.34,2c.57.16.77.32.77.65s-.65.48-.85.48c-.12.29-.65,2.14-.81,2.67a37,37,0,0,0,4.37-1.33,40.27,40.27,0,0,0,.12,6,54.7,54.7,0,0,1-6.47,1.41c-.56,1.66-1.94,5.37-4.12,10.34a53.4,53.4,0,0,1-4.73,8.89,31.79,31.79,0,0,0-6.06-2.42,72.3,72.3,0,0,0,8.16-16c-.93.08-4.8.2-6.06.2Zm26.14,11a6,6,0,0,0-1.46,4,28.85,28.85,0,0,0,.41,4,43.07,43.07,0,0,1,8.56,4.93,40.78,40.78,0,0,0-3.72,4.85,36.3,36.3,0,0,0-4.64-3.4c-.77,3.8-3.44,4.93-8.08,4.93-6.43,0-9.62-2.87-9.62-6.66,0-.77.16-6.39,8.33-6.39,1.13,0,1.93.08,2.66.12,0-.28-.2-3.19-.2-3.51a7.87,7.87,0,0,1,2.83-5.62Zm-10,11c-1.13,0-2.59.56-2.59,1.66s1.17,1.49,2.87,1.49c2.75,0,2.91-1.33,3-2.34A7.77,7.77,0,0,0,446.77,70.74Zm7.84-21.54c6.42,2.1,8.8,3.8,10.62,5.26a50.73,50.73,0,0,0-3.67,5.21,29,29,0,0,0-10.15-5.21Z"/><path class="cls-3" d="M486.37,61.24v-.8c-.37.52-.61.89-1.05,1.45A20.27,20.27,0,0,0,481,59.1h-2.38a29.18,29.18,0,0,0,5.05,8,50,50,0,0,0-3.8,3.36,18,18,0,0,1-1.74-2.95V79.18H473V70.74a18.64,18.64,0,0,1-1.74,2.83,18,18,0,0,0-4.28-3.8,27.26,27.26,0,0,0,5.3-10.67h-3.84V53.85H473v-1.7c-2.26.65-2.5.73-3.59,1.09a46.26,46.26,0,0,0-2.19-6.58l4.29-1.58A30.27,30.27,0,0,1,473,48.6V42.42l5.34.48c.44,0,.76.08.76.4s-.44.53-1,.77v6.27c.17-.41,1.09-3.16,1.58-5.18L485,46.74c.2,0,.49.16.49.44,0,.45-.49.53-1.26.61a37.32,37.32,0,0,1-2.06,5.66,17.46,17.46,0,0,0-4-1.58v2h4.45v1.74a35.46,35.46,0,0,0,4.12-12l5.74,2.18c.28.12.6.2.6.44,0,.49-.64.61-1.25.69a64,64,0,0,1-2.95,9h9.29a21.58,21.58,0,0,1-2.66-7.48h-2.31V43.14h7.56c.24,7.24.89,8.89,5.78,13.86a14.34,14.34,0,0,0-3.88,4.24c-.36-.24-.49-.36-.65-.48.08,16.77-.28,18-9.21,18.26a13.36,13.36,0,0,0-1.9-6.18,28.11,28.11,0,0,0,3.44.36c1.33,0,1.81-.4,2-3.07.08-1.33.2-6.22.12-8.89H493.6a23.29,23.29,0,0,1-3.72,12.53,18.26,18.26,0,0,1-5.82,5.49,20.87,20.87,0,0,0-4.12-4.12c6.18-3.84,7.8-7,8.08-13.9Z"/><path class="cls-3" d="M509.68,75.43V69.61h22.87v-6h-21.7v-5.7h21.7V52.23H510.21v-5.9h28.93V77.08h-6.59V75.43Z"/><path class="cls-3" d="M580.72,57.49v6.87H545.6V57.49Z"/><path class="cls-3" d="M612,48.52a6.77,6.77,0,0,0,2.87-.61l3.35,2.87c-.72,1.21-3.19,6.75-4.12,8.81-6.22,14-15.19,18.46-18.74,20.24a21.74,21.74,0,0,0-5.22-4.61,37.08,37.08,0,0,0,13.13-9.57,38.5,38.5,0,0,0,6-11.31H599.18a55.27,55.27,0,0,1-9.09,10.34,22.18,22.18,0,0,0-4.93-4.37C595,52,597.53,44.88,598.42,42.46l5.81,2.82c.17.09.53.29.53.61s-.57.53-1,.57c-.65,1.25-.77,1.57-1,2.06ZM610.7,41.2a33.43,33.43,0,0,1,4,3.88,38.09,38.09,0,0,0-3.31,2.26,36.07,36.07,0,0,0-3.84-3.87Zm6.42-.44a37.22,37.22,0,0,1,4,4.16c-.52.36-2.91,1.9-3.39,2.22a21.72,21.72,0,0,0-3.64-4.24Z"/><path class="cls-3" d="M637.65,45.32c.45,0,.93,0,.93.57s-.52.69-.69.77v9.86c0,10.62-5.17,15.11-10,19.27a20.36,20.36,0,0,0-5.45-4.4A21.45,21.45,0,0,0,629,65.16c.49-.76,2-3.11,2-8.28V45ZM648,45c.44,0,.76,0,.76.45s-.4.56-.76.72V65.85a43.36,43.36,0,0,0,10.46-10.59,19,19,0,0,0,3.11,6.07,69.3,69.3,0,0,1-11.35,11.19c-1.62,1.17-3.19,2.42-4.77,3.63l-4.28-2.74c.08-1.09.16-2.11.16-3.24V44.64Z"/><path class="cls-3" d="M678.14,53.45c6,3,11.11,6.5,14.1,9.49-1.82,2.63-2,2.91-3.8,5.66a59.68,59.68,0,0,0-12.6-9V78.58H669V42.9l6.83.32c.28,0,.76,0,.76.45s-.44.56-.76.64V56.68Z"/><path class="cls-3" d="M706.1,43.47l6.47-.89c.28,0,.85-.08.85.4s-.29.61-.61.85l.77,5.25L722.67,48l.69,5.9-8.89,1.21.6,4.2,13.46-1.73.68,5.94L716,65.24,717.82,78l-6.46,1.09-1.9-13L695.31,68l-.72-6.06,14-1.82L708,55.91,698.1,57.2l-.72-6.06,9.69-1.21Z"/><path class="cls-3" d="M740.65,50l5.66-.69c.36,0,.85-.12.85.37,0,.32-.33.56-.61.77l1.17,5.85,9.74-2a3.39,3.39,0,0,0,1.86-1.09l3.92,2.95c-1.7,2.06-4,6.19-6.79,11.32a37.21,37.21,0,0,0-5.29-2.55,29.39,29.39,0,0,0,3-4.61l-5.38,1.22,3.07,15.63-5.49,1.3L743.2,62.78l-8.12,1.82-1.54-5.5,8.61-1.73Z"/><path class="cls-3" d="M771.4,43.55c6.79,3.47,8.89,5.49,10.1,6.62-1,1.17-1.25,1.62-3.92,5.5A41.52,41.52,0,0,0,767.4,49.2Zm-3.31,27.92C779.6,69.08,791,61.28,798.15,49.73a25.59,25.59,0,0,0,4.16,5.49,53.39,53.39,0,0,1-12.56,13.46,67.18,67.18,0,0,1-16.65,9c0,.44-.2.89-.57.89s-.4-.12-.64-.57Z"/><path class="cls-3" d="M803.61,61c2.7-2,3.35-2.66,9-9,3.8-4.24,5.29-5.49,7.59-5.49,2.59,0,3.84,1.53,6.67,5,4.81,5.85,9.78,11.63,15.76,16.28-1.54,1.94-3.52,4.81-4.29,5.9a218.9,218.9,0,0,1-15.71-17.9c-1.62-2.06-2.18-2.06-2.67-2.06-.93,0-2.22,1.49-3.19,2.62-1.9,2.23-5.9,7.44-7.19,9.42a1.66,1.66,0,0,1,.12.52.41.41,0,0,1-.37.45,1,1,0,0,1-.68-.4Zm35.55-14.75a3.8,3.8,0,1,1-3.8-3.79A3.79,3.79,0,0,1,839.16,46.29Zm-5.57,0a1.76,1.76,0,0,0,1.77,1.78,1.78,1.78,0,1,0-1.77-1.78Z"/><path class="cls-3" d="M880.74,57.49v6.87H845.63V57.49Z"/><path class="cls-3" d="M890.36,43.55c6.79,3.47,8.89,5.49,10.1,6.62-1,1.17-1.25,1.62-3.92,5.5a41.52,41.52,0,0,0-10.18-6.47Zm-3.31,27.92c11.51-2.39,22.87-10.19,30.06-21.74a25.59,25.59,0,0,0,4.16,5.49,53.39,53.39,0,0,1-12.56,13.46,67.18,67.18,0,0,1-16.65,9c0,.44-.2.89-.57.89s-.4-.12-.64-.57Z"/><path class="cls-3" d="M954.77,58.54V63H944.3a8.78,8.78,0,0,1-.16,1.42h15.6v4.64H947.66A24.82,24.82,0,0,0,960.3,74a17.27,17.27,0,0,0-3.19,5.29c-1.94-.36-10-2.34-15.43-8.48-2.39,3.39-7.24,7.19-14.79,8.61a20,20,0,0,0-3.07-5.17c4.16-.33,9.21-1.5,12.2-5.18H923.74V64.44h14.38c0-.33.12-.69.2-1.42h-9.57V58.54h9.86V57H928.14V55.43h-4.6v-10H938.4V42.33l6.43.17c.52,0,.93.2.93.52s-.33.49-.93.81v1.62h15v9.69h-4.73V57H944.63c0,.65,0,1.13,0,1.54Zm-16.16-8.49h-9.38v2.51h9.38Zm6,2.51h9.53V50.05H945.6a.44.44,0,0,1,.12.29c0,.48-.53.6-1.09.72Z"/><path class="cls-3" d="M987.74,57.2V51.51l5.09.36c.61,0,.85.32.85.53s-.57.56-.85.64v2.59l4.49-1.42L1000,55.3v10c0,3.11-1.65,4.12-2.82,4.64a7.44,7.44,0,0,0,4.64,2.18,10.35,10.35,0,0,1-.89,4,5.7,5.7,0,0,1-5,2.79h-8.68c-6,0-6.27-4-6.27-5.17V65l-1.82.57c-.4,10.71-1.09,13.17-8,13.9a12.08,12.08,0,0,0-1.25-5.05,16.64,16.64,0,0,1-2.42,4.44,13.43,13.43,0,0,0-5-3,27.6,27.6,0,0,0,4.32-12.56c.16-2.27.16-4,.12-10.67h-3.64V47.63h5.82V42l5.94.24c.37,0,1,.08,1,.65,0,.32-.32.53-1,.77v4h4.57v2.62a21.14,21.14,0,0,0,3.8-8.44l5.45,1.53c.2,0,.57.17.57.57s-.29.53-.89.77c-.28.77-.37,1-.53,1.37h12.85v4.77H985.76a35,35,0,0,1-2.06,3.39l2.55.13c.48,0,.68.32.68.6s-.24.44-.68.69v2ZM972.67,61a39.46,39.46,0,0,1-2.42,12.53,9,9,0,0,0,1.69.2c1.21,0,1.78-1,2.1-4.12a75.2,75.2,0,0,0,.41-8.61Zm.08-8.32v3.11h5.78a15.87,15.87,0,0,0-2.47-1.33,19.59,19.59,0,0,0,1.7-1.78Zm8.2,6.62V57.57a11.51,11.51,0,0,0-1.86-1.38c0,1.26,0,2.47.08,3.68Zm5.3,4v8.17a2.17,2.17,0,0,0,2.34,2.22h5.33c2.39,0,2.59-1.21,2.71-3.56a9.29,9.29,0,0,1-2.34.33,11,11,0,0,0-1.46-4.16v4.92h-5.09v-8.4Zm6.58-2.1v4.09c1.86,0,1.86-1.34,1.86-1.86V60.64Z"/><path class="cls-3" d="M1025.64,79.26h-6.14V67.51h-8.2v1.65H1005V49.69h14.5V42.25l6.67.37c.2,0,.65,0,.65.48s-.57.61-1.18.69v5.9h14.51V69.16H1034V67.51h-8.33Zm-6.14-24.08h-8.2v6.55h8.2Zm6.14,6.55H1034V55.18h-8.33Z"/><path class="cls-3" d="M1052.47,44.39v9.42L1051,65.69h-3.88l-1.49-11.88V44.39Zm-6.78,25h6.78v6.82h-6.78Z"/></g></g></svg>